<svg width="40" height="40" viewBox="0 0 40 40" fill="none" xmlns="http://www.w3.org/2000/svg">
<circle cx="20" cy="20" r="20" fill="#D7372B"/>
<path d="M29.8361 20.002C29.8361 20.3151 29.7117 20.6154 29.4903 20.8368C29.2689 21.0582 28.9686 21.1826 28.6555 21.1826H21.1787V28.6594C21.1787 28.9725 21.0543 29.2728 20.8329 29.4942C20.6115 29.7156 20.3112 29.84 19.9981 29.84C19.685 29.84 19.3847 29.7156 19.1633 29.4942C18.9419 29.2728 18.8176 28.9725 18.8176 28.6594V21.1826H11.3407C11.0276 21.1826 10.7273 21.0582 10.5059 20.8368C10.2845 20.6154 10.1602 20.3151 10.1602 20.002C10.1602 19.6889 10.2845 19.3886 10.5059 19.1672C10.7273 18.9459 11.0276 18.8215 11.3407 18.8215H18.8176V11.3446C18.8176 11.0315 18.9419 10.7312 19.1633 10.5098C19.3847 10.2884 19.685 10.1641 19.9981 10.1641C20.3112 10.1641 20.6115 10.2884 20.8329 10.5098C21.0543 10.7312 21.1787 11.0315 21.1787 11.3446V18.8215H28.6555C28.9686 18.8215 29.2689 18.9459 29.4903 19.1672C29.7117 19.3886 29.8361 19.6889 29.8361 20.002Z" fill="#F4F1E7"/>
</svg>
