<svg width="95" height="151" viewBox="0 0 95 151" fill="none" xmlns="http://www.w3.org/2000/svg">
<g clip-path="url(#clip0_363_7188)">
<path d="M76.6598 25.4375H18.3398V124.424H76.6598V25.4375Z" fill="#F4F1E7"/>
<path d="M95 151H77.8674V149.146C77.8674 146.947 76.0738 145.16 73.8671 145.16C71.6603 145.16 69.8667 146.947 69.8667 149.146V151H60.2864V149.146C60.2864 146.947 58.4929 145.16 56.2861 145.16C54.0793 145.16 52.2858 146.947 52.2858 149.146V151H42.7055V149.146C42.7055 146.947 40.9119 145.16 38.7051 145.16C36.4983 145.16 34.7048 146.947 34.7048 149.146V151H25.1245V149.146C25.1245 146.947 23.3309 145.16 21.1241 145.16C18.9174 145.16 17.1238 146.947 17.1238 149.146V151H0V132.029H1.86096C4.06774 132.029 5.8613 130.242 5.8613 128.043C5.8613 125.845 4.06774 124.057 1.86096 124.057H0V114.512H1.86096C4.06774 114.512 5.8613 112.725 5.8613 110.526C5.8613 108.328 4.06774 106.541 1.86096 106.541H0V96.9953H1.86096C4.06774 96.9953 5.8613 95.2083 5.8613 93.0095C5.8613 90.8108 4.06774 89.0238 1.86096 89.0238H0V79.4784H1.86096C4.06774 79.4784 5.8613 77.6914 5.8613 75.4927C5.8613 73.294 4.06774 71.5069 1.86096 71.5069H0V61.9616H1.86096C4.06774 61.9616 5.8613 60.1746 5.8613 57.9758C5.8613 55.7771 4.06774 53.9901 1.86096 53.9901H0V44.4447H1.86096C4.06774 44.4447 5.8613 42.6577 5.8613 40.459C5.8613 38.2603 4.06774 36.4732 1.86096 36.4732H0V26.9279H1.86096C4.06774 26.9279 5.8613 25.1409 5.8613 22.9421C5.8613 20.7434 4.06774 18.9564 1.86096 18.9564H0V0H17.1326V1.85418C17.1326 4.05291 18.9261 5.83992 21.1329 5.83992C23.3397 5.83992 25.1333 4.05291 25.1333 1.85418V0H34.7136V1.85418C34.7136 4.05291 36.5071 5.83992 38.7139 5.83992C40.9207 5.83992 42.7142 4.05291 42.7142 1.85418V0H52.2945V1.85418C52.2945 4.05291 54.0881 5.83992 56.2949 5.83992C58.5017 5.83992 60.2952 4.05291 60.2952 1.85418V0H69.8755V1.85418C69.8755 4.05291 71.6691 5.83992 73.8759 5.83992C76.0826 5.83992 77.8762 4.05291 77.8762 1.85418V0H95.0088V18.971H93.1478C90.941 18.971 89.1475 20.758 89.1475 22.9567C89.1475 25.1555 90.941 26.9425 93.1478 26.9425H95.0088V36.4878H93.1478C90.941 36.4878 89.1475 38.2749 89.1475 40.4736C89.1475 42.6723 90.941 44.4593 93.1478 44.4593H95.0088V54.0047H93.1478C90.941 54.0047 89.1475 55.7917 89.1475 57.9904C89.1475 60.1892 90.941 61.9762 93.1478 61.9762H95.0088V71.5215H93.1478C90.941 71.5215 89.1475 73.3086 89.1475 75.5073C89.1475 77.706 90.941 79.493 93.1478 79.493H95.0088V89.0384H93.1478C90.941 89.0384 89.1475 90.8254 89.1475 93.0241C89.1475 95.2229 90.941 97.0099 93.1478 97.0099H95.0088V106.555H93.1478C90.941 106.555 89.1475 108.342 89.1475 110.541C89.1475 112.74 90.941 114.527 93.1478 114.527H95.0088V124.072H93.1478C90.941 124.072 89.1475 125.859 89.1475 128.058C89.1475 130.257 90.941 132.044 93.1478 132.044H95.0088V151.015L95 151ZM80.3204 148.53H92.5207V134.473C89.2383 134.161 86.6623 131.398 86.6623 128.046C86.6623 124.694 89.2383 121.932 92.5207 121.619V116.959C89.2383 116.647 86.6623 113.884 86.6623 110.532C86.6623 107.18 89.2383 104.418 92.5207 104.105V99.4451C89.2383 99.1327 86.6623 96.3704 86.6623 93.0183C86.6623 89.6662 89.2383 86.9039 92.5207 86.5915V81.9312C89.2383 81.6188 86.6623 78.8565 86.6623 75.5044C86.6623 72.1523 89.2383 69.39 92.5207 69.0775V64.4173C89.2383 64.1048 86.6623 61.3426 86.6623 57.9904C86.6623 54.6383 89.2383 51.876 92.5207 51.5636V46.9033C89.2383 46.5909 86.6623 43.8286 86.6623 40.4765C86.6623 37.1244 89.2383 34.3621 92.5207 34.0497V29.3894C89.2383 29.077 86.6623 26.3147 86.6623 22.9626C86.6623 19.6105 89.2383 16.8482 92.5207 16.5357V2.47029H80.3204C80.0068 5.74064 77.2344 8.30729 73.87 8.30729C70.5056 8.30729 67.7332 5.74064 67.4196 2.47029H62.7423C62.4287 5.74064 59.6563 8.30729 56.292 8.30729C52.9276 8.30729 50.1552 5.74064 49.8416 2.47029H45.1643C44.8507 5.74064 42.0783 8.30729 38.7139 8.30729C35.3495 8.30729 32.5771 5.74064 32.2635 2.47029H27.5862C27.2726 5.74064 24.5002 8.30729 21.1359 8.30729C17.7715 8.30729 14.9991 5.74064 14.6855 2.47029H2.47933V16.5299C5.76166 16.8423 8.3377 19.6046 8.3377 22.9567C8.3377 26.3089 5.76166 29.0711 2.47933 29.3836V34.0438C5.76166 34.3563 8.3377 37.1186 8.3377 40.4707C8.3377 43.8228 5.76166 46.5851 2.47933 46.8975V51.5578C5.76166 51.8702 8.3377 54.6325 8.3377 57.9846C8.3377 61.3367 5.76166 64.099 2.47933 64.4114V69.0717C5.76166 69.3841 8.3377 72.1464 8.3377 75.4985C8.3377 78.8506 5.76166 81.6129 2.47933 81.9254V86.5856C5.76166 86.8981 8.3377 89.6603 8.3377 93.0125C8.3377 96.3646 5.76166 99.1269 2.47933 99.4393V104.1C5.76166 104.412 8.3377 107.174 8.3377 110.526C8.3377 113.879 5.76166 116.641 2.47933 116.953V121.613C5.76166 121.926 8.3377 124.688 8.3377 128.04C8.3377 131.392 5.76166 134.155 2.47933 134.467V148.524H14.6796C14.9932 145.253 17.7656 142.687 21.13 142.687C24.4944 142.687 27.2668 145.253 27.5804 148.524H32.2577C32.5713 145.253 35.3437 142.687 38.708 142.687C42.0724 142.687 44.8448 145.253 45.1584 148.524H49.8357C50.1493 145.253 52.9217 142.687 56.2861 142.687C59.6505 142.687 62.4229 145.253 62.7365 148.524H67.4138C67.7273 145.253 70.4997 142.687 73.8641 142.687C77.2285 142.687 80.0009 145.253 80.3145 148.524L80.3204 148.53Z" fill="#F4F1E7"/>
</g>
<defs>
<clipPath id="clip0_363_7188">
<rect width="95" height="151" fill="white"/>
</clipPath>
</defs>
</svg>
