<svg width="38" height="38" viewBox="0 0 38 38" fill="none" xmlns="http://www.w3.org/2000/svg">
<circle cx="19" cy="19" r="19" fill="white"/>
<g clip-path="url(#clip0_324_10961)">
<path d="M10.2919 15.6125C10.6216 15.1974 10.8452 14.6399 10.7863 14.0703C10.3037 14.0945 9.71485 14.3909 9.37393 14.8064C9.06779 15.1622 8.79687 15.7429 8.86752 16.2887C9.40915 16.336 9.95039 16.0161 10.2919 15.6125ZM10.7801 16.3952C9.99343 16.348 9.32455 16.8448 8.94884 16.8448C8.57297 16.8448 7.99766 16.419 7.37543 16.4305C6.56556 16.4425 5.8141 16.9035 5.40312 17.6368C4.55782 19.1038 5.18005 21.2798 6.00206 22.4745C6.40122 23.0656 6.88237 23.7164 7.51625 23.693C8.11519 23.6693 8.34996 23.3025 9.07796 23.3025C9.80547 23.3025 10.0169 23.693 10.6509 23.6812C11.3084 23.6693 11.7195 23.0898 12.1186 22.4981C12.5766 21.8243 12.7641 21.1737 12.7758 21.138C12.764 21.1262 11.508 20.641 11.4963 19.1863C11.4845 17.9682 12.4825 17.3887 12.5295 17.3528C11.966 16.5137 11.0854 16.419 10.7801 16.3952ZM17.63 14.7467C19.3398 14.7467 20.5305 15.9335 20.5305 17.6613C20.5305 19.3952 19.3153 20.5881 17.5871 20.5881H15.694V23.6195H14.3262V14.7467H17.63ZM15.6939 19.4321H17.2634C18.4542 19.4321 19.132 18.7865 19.132 17.6674C19.132 16.5484 18.4542 15.9089 17.2695 15.9089H15.6939V19.4321ZM20.8878 21.781C20.8878 20.6496 21.7489 19.9548 23.2757 19.8687L25.0344 19.7642V19.2662C25.0344 18.5468 24.5519 18.1164 23.746 18.1164C22.9824 18.1164 22.5061 18.4852 22.3902 19.0633H21.1444C21.2177 17.8949 22.2069 17.0341 23.7947 17.0341C25.3519 17.0341 26.3473 17.8642 26.3473 19.1616V23.6195H25.0831V22.5557H25.0527C24.6802 23.2752 23.868 23.7301 23.0253 23.7301C21.7673 23.7301 20.8878 22.9431 20.8878 21.781ZM25.0343 21.1969V20.6866L23.4526 20.7849C22.6649 20.8403 22.2191 21.1908 22.2191 21.7442C22.2191 22.3098 22.6832 22.6788 23.3916 22.6788C24.3137 22.6787 25.0343 22.0392 25.0343 21.1969ZM27.5407 25.9991V24.923C27.6382 24.9476 27.858 24.9476 27.968 24.9476C28.5786 24.9476 28.9085 24.6894 29.1099 24.0253C29.1099 24.013 29.226 23.6318 29.226 23.6256L26.9055 17.1509H28.3344L29.959 22.4143H29.9832L31.6078 17.1509H33L30.5938 23.9576C30.0444 25.5257 29.4092 26.0298 28.078 26.0298C27.968 26.0298 27.6382 26.0175 27.5407 25.9991Z" fill="black"/>
</g>
<defs>
<clipPath id="clip0_324_10961">
<rect width="28" height="13" fill="white" transform="translate(5 13)"/>
</clipPath>
</defs>
</svg>
