<svg width="39" height="39" viewBox="0 0 39 39" fill="none" xmlns="http://www.w3.org/2000/svg">
<circle cx="19.4582" cy="19.4582" r="19.4582" fill="#F4F1E7"/>
<circle cx="19.4582" cy="19.4582" r="18.6082" stroke="#3C3C3C" stroke-opacity="0.933333" stroke-width="1.7"/>
<path d="M27.2348 24.5033C26.9137 25.2449 26.5338 25.9276 26.0935 26.5552C25.4934 27.4108 25.002 28.0031 24.6234 28.3319C24.0364 28.8718 23.4074 29.1482 22.734 29.164C22.2505 29.164 21.6674 29.0264 20.9887 28.7473C20.3077 28.4695 19.6819 28.3319 19.1097 28.3319C18.5096 28.3319 17.866 28.4695 17.1776 28.7473C16.4881 29.0264 15.9327 29.1718 15.5081 29.1862C14.8622 29.2138 14.2185 28.9294 13.5759 28.3319C13.1658 27.9742 12.6528 27.361 12.0383 26.4923C11.379 25.5646 10.8369 24.4889 10.4123 23.2625C9.95748 21.9378 9.72949 20.655 9.72949 19.4131C9.72949 17.9906 10.0369 16.7636 10.6526 15.7355C11.1365 14.9096 11.7802 14.2581 12.5859 13.7799C13.3916 13.3016 14.2621 13.0579 15.1996 13.0423C15.7126 13.0423 16.3853 13.201 17.2212 13.5128C18.0548 13.8257 18.5901 13.9844 18.8248 13.9844C19.0002 13.9844 19.5948 13.7989 20.6028 13.429C21.556 13.086 22.3605 12.9439 23.0196 12.9999C24.8055 13.144 26.1472 13.848 27.0395 15.1164C25.4423 16.0841 24.6522 17.4396 24.6679 19.1785C24.6823 20.5329 25.1737 21.66 26.1394 22.5549C26.577 22.9703 27.0657 23.2913 27.6095 23.5193C27.4916 23.8613 27.3671 24.1888 27.2348 24.5033ZM23.1388 8.3856C23.1388 9.4472 22.751 10.4384 21.9779 11.3559C21.045 12.4465 19.9166 13.0768 18.6929 12.9773C18.6774 12.85 18.6683 12.7159 18.6683 12.5751C18.6683 11.5559 19.112 10.4653 19.8998 9.5735C20.2932 9.12198 20.7934 8.74654 21.4001 8.44705C22.0055 8.15203 22.578 7.98888 23.1166 7.96094C23.1323 8.10286 23.1388 8.2448 23.1388 8.3856Z" fill="#3C3C3C" fill-opacity="0.933333"/>
</svg>
