<svg width="28" height="28" viewBox="0 0 28 28" fill="none" xmlns="http://www.w3.org/2000/svg">
<circle cx="14" cy="14" r="14" fill="#3C3C3C" fill-opacity="0.933333"/>
<path d="M14.1883 20.9984C10.2243 20.9984 7 17.773 7 13.8065C7 10.6479 8.66704 8.06667 11.3521 7.0663C11.4078 7.04403 11.4666 7.02654 11.5255 7.0154L11.5525 7.01063C11.7196 6.98519 11.8914 7.00586 12.0488 7.06789C12.5372 7.26192 12.7774 7.81857 12.5817 8.30842C12.3415 8.90642 12.219 9.56167 12.219 10.2551C12.219 13.0956 14.9025 15.7818 17.7419 15.7818C18.4275 15.7818 19.0812 15.6578 19.6873 15.416C19.9084 15.3254 20.1565 15.3222 20.384 15.4081C20.6226 15.4987 20.8119 15.6769 20.9153 15.9091C21.0203 16.1413 21.0282 16.4005 20.936 16.6391C19.9402 19.3269 17.3538 21 14.1867 21L14.1883 20.9984ZM11.1644 8.54221C9.36376 9.50124 8.27255 11.4559 8.27255 13.8065C8.27255 17.0701 10.9258 19.7261 14.1883 19.7261C16.5409 19.7261 18.4991 18.6319 19.4598 16.8283C18.9095 16.9762 18.3352 17.0526 17.7435 17.0526C14.1867 17.0526 10.9481 13.8113 10.9481 10.2535C10.9481 9.66028 11.0212 9.08773 11.166 8.54221H11.1644ZM20.1645 16.5929C20.1645 16.5929 20.1629 16.5929 20.1613 16.5929C20.1613 16.5929 20.1629 16.5929 20.1645 16.5929ZM19.7446 16.1906C19.7446 16.1906 19.7446 16.1937 19.743 16.1953C19.743 16.1937 19.743 16.1921 19.7446 16.1906Z" fill="#F4F1E7"/>
</svg>
