<svg width="12" height="22" viewBox="0 0 12 22" fill="none" xmlns="http://www.w3.org/2000/svg">
<path d="M11.429 18.8226C11.6756 19.0692 11.8141 19.4036 11.8141 19.7523C11.8141 20.101 11.6756 20.4354 11.429 20.682C11.1824 20.9285 10.848 21.0671 10.4993 21.0671C10.1506 21.0671 9.8162 20.9285 9.56963 20.682L0.819628 11.932C0.697268 11.81 0.600183 11.6651 0.533938 11.5056C0.467694 11.3461 0.433594 11.175 0.433594 11.0023C0.433594 10.8295 0.467694 10.6585 0.533938 10.499C0.600183 10.3394 0.697268 10.1945 0.819628 10.0726L9.56963 1.32259C9.8162 1.07602 10.1506 0.9375 10.4993 0.9375C10.848 0.9375 11.1824 1.07602 11.429 1.32259C11.6756 1.56916 11.8141 1.90358 11.8141 2.25228C11.8141 2.60098 11.6756 2.9354 11.429 3.18196L3.60978 11.0012L11.429 18.8226Z" fill="#F4F1E7"/>
</svg>
