<svg width="74" height="73" viewBox="0 0 74 73" fill="none" xmlns="http://www.w3.org/2000/svg">
<path d="M36.9989 21.2031C28.6365 21.2031 21.832 27.9671 21.832 36.2829C21.832 44.5987 28.6351 51.3627 36.9989 51.3627C45.3628 51.3627 52.1658 44.5987 52.1658 36.2829C52.1658 27.9671 45.3628 21.2031 36.9989 21.2031ZM36.9989 48.4927C30.2276 48.4927 24.7171 43.0153 24.7171 36.2815C24.7171 29.5476 30.2262 24.0702 36.9989 24.0702C43.7717 24.0702 49.2807 29.5476 49.2807 36.2815C49.2807 43.0153 43.7717 48.4927 36.9989 48.4927Z" fill="#D7372B"/>
<path d="M0.0703125 36.2827C0.0703125 56.5745 16.5874 72.9996 36.9994 72.9996C57.4114 72.9996 73.9285 56.5774 73.9285 36.2827C73.9285 -11.6817 0.0703125 -12.505 0.0703125 36.2827ZM36.9994 70.1311C18.2276 70.1311 2.9554 54.9467 2.9554 36.2827C2.9554 17.6187 18.2276 2.43423 36.9994 2.43423C55.7712 2.43423 71.0434 17.6187 71.0434 36.2827C71.0434 54.9467 55.7712 70.1311 36.9994 70.1311Z" fill="#D7372B"/>
<path d="M36.9998 5.28125C19.7658 5.28125 5.81641 19.1476 5.81641 36.2856C5.81641 53.4235 19.7629 67.2899 36.9998 67.2899C54.2368 67.2899 68.1833 53.4235 68.1833 36.2856C68.1833 19.1476 54.2368 5.28125 36.9998 5.28125ZM62.1938 49.092L55.8582 45.4562C57.0252 43.0926 57.7551 40.4793 57.9456 37.7213H65.2621C65.0559 41.7989 63.9711 45.6513 62.1938 49.0935V49.092ZM35.5573 57.111V64.3855C31.4562 64.1804 27.5815 63.1019 24.1194 61.3349L27.7762 55.0356C30.1535 56.1959 32.7818 56.9217 35.5559 57.111H35.5573ZM38.4424 57.111C41.2164 56.9231 43.8461 56.1959 46.222 55.0356L49.8789 61.3349C46.4168 63.1019 42.5421 64.179 38.4409 64.3855V57.111H38.4424ZM36.9998 54.2927C27.0131 54.2927 18.8887 46.2149 18.8887 36.2856C18.8887 26.3562 27.0131 18.2785 36.9998 18.2785C46.9866 18.2785 55.111 26.3562 55.111 36.2856C55.111 46.2149 46.9866 54.2927 36.9998 54.2927ZM8.73755 37.7198H16.0541C16.2431 40.4793 16.9745 43.0911 18.1415 45.4548L11.8058 49.0906C10.0286 45.6484 8.94384 41.796 8.73755 37.7184V37.7198ZM11.8058 23.4805L18.14 27.1164C16.973 29.48 16.2431 32.0932 16.0527 34.8513H8.73611C8.94239 30.7737 10.0272 26.9213 11.8044 23.4791L11.8058 23.4805ZM38.4424 15.4602V8.18562C42.5435 8.39072 46.4182 9.46928 49.8803 11.2363L46.2235 17.5341C43.8461 16.3738 41.2178 15.6481 38.4438 15.4587L38.4424 15.4602ZM35.5573 15.4602C32.7818 15.6481 30.1535 16.3752 27.7777 17.5355L24.1208 11.2363C27.5829 9.46928 31.4562 8.39215 35.5587 8.18562V15.4602H35.5573ZM57.9456 34.8513C57.7566 32.0918 57.0252 29.4786 55.8582 27.1164L62.1938 23.4805C63.9711 26.9227 65.0544 30.7737 65.2621 34.8527H57.9456V34.8513ZM60.7455 20.9993L54.4128 24.6351C52.8981 22.4048 50.9622 20.4801 48.7191 18.9741L52.3759 12.6777C55.7183 14.8363 58.5745 17.6775 60.747 20.9993H60.7455ZM21.6238 12.6763L25.2806 18.9727C23.0375 20.4786 21.1016 22.4034 19.5869 24.6337L13.2542 20.9978C15.4252 17.6747 18.2829 14.8348 21.6252 12.6748L21.6238 12.6763ZM13.2542 51.5733L19.5869 47.9375C21.1016 50.1677 23.0375 52.0925 25.2806 53.5985L21.6238 59.8949C18.2814 57.7363 15.4252 54.8951 13.2527 51.5719L13.2542 51.5733ZM52.3759 59.8963L48.7191 53.5999C50.9622 52.0939 52.8981 50.1692 54.4128 47.9389L60.7455 51.5747C58.5745 54.8979 55.7168 57.7377 52.3745 59.8977L52.3759 59.8963Z" fill="#D7372B"/>
<path d="M43.828 33.3892L40.0038 32.837L38.2944 29.3919C37.7664 28.3277 36.2359 28.3277 35.7065 29.3919L33.997 32.837L30.1729 33.3892C28.9929 33.5599 28.5183 35.007 29.3737 35.836L32.1405 38.5181L31.487 42.3045C31.2851 43.4734 32.5228 44.3684 33.5801 43.8162L37.0004 42.0292L40.4207 43.8162C41.4723 44.3656 42.7158 43.4777 42.5138 42.3045L41.8603 38.5181L44.6271 35.836C45.4811 35.0085 45.0094 33.5599 43.8265 33.3892H43.828ZM39.3042 36.9892C38.9637 37.319 38.8094 37.7938 38.8887 38.2585L39.1758 39.9237L37.6712 39.1377C37.2514 38.9182 36.7494 38.9182 36.3282 39.1377L34.8236 39.9237L35.1107 38.2585C35.1915 37.7938 35.0357 37.319 34.6952 36.9892L33.4777 35.8102L35.1597 35.5678C35.63 35.5004 36.0354 35.2064 36.246 34.7833L36.9975 33.2673L37.7491 34.7833C37.9597 35.2064 38.3651 35.5004 38.8353 35.5678L40.5173 35.8102L39.3013 36.9892H39.3042Z" fill="#D7372B"/>
</svg>
