<svg width="35" height="38" viewBox="0 0 35 38" fill="none" xmlns="http://www.w3.org/2000/svg">
<g filter="url(#filter0_d_307_12319)">
<path d="M22.3546 13.1046L18.9579 16.5L22.3546 19.8954C22.4504 19.9912 22.5264 20.105 22.5783 20.2301C22.6301 20.3553 22.6568 20.4895 22.6568 20.625C22.6568 20.7605 22.6301 20.8947 22.5783 21.0199C22.5264 21.145 22.4504 21.2588 22.3546 21.3546C22.2588 21.4504 22.1451 21.5264 22.0199 21.5783C21.8947 21.6301 21.7605 21.6568 21.625 21.6568C21.4895 21.6568 21.3553 21.6301 21.2301 21.5783C21.105 21.5264 20.9912 21.4504 20.8954 21.3546L17.5 17.9579L14.1046 21.3546C14.0088 21.4504 13.8951 21.5264 13.7699 21.5783C13.6447 21.6301 13.5105 21.6568 13.375 21.6568C13.2395 21.6568 13.1053 21.6301 12.9801 21.5783C12.855 21.5264 12.7412 21.4504 12.6454 21.3546C12.5496 21.2588 12.4736 21.145 12.4217 21.0199C12.3699 20.8947 12.3432 20.7605 12.3432 20.625C12.3432 20.4895 12.3699 20.3553 12.4217 20.2301C12.4736 20.105 12.5496 19.9912 12.6454 19.8954L16.0421 16.5L12.6454 13.1046C12.4519 12.9111 12.3432 12.6487 12.3432 12.375C12.3432 12.1013 12.4519 11.8389 12.6454 11.6454C12.8389 11.4519 13.1013 11.3432 13.375 11.3432C13.6487 11.3432 13.9111 11.4519 14.1046 11.6454L17.5 15.0421L20.8954 11.6454C20.9912 11.5496 21.105 11.4736 21.2301 11.4217C21.3553 11.3699 21.4895 11.3432 21.625 11.3432C21.7605 11.3432 21.8947 11.3699 22.0199 11.4217C22.1451 11.4736 22.2588 11.5496 22.3546 11.6454C22.4504 11.7412 22.5264 11.855 22.5783 11.9801C22.6301 12.1053 22.6568 12.2395 22.6568 12.375C22.6568 12.5105 22.6301 12.6447 22.5783 12.7699C22.5264 12.895 22.4504 13.0088 22.3546 13.1046ZM30.9063 16.5C30.9063 19.1515 30.12 21.7435 28.6469 23.9481C27.1738 26.1528 25.08 27.8711 22.6304 28.8858C20.1807 29.9004 17.4851 30.1659 14.8846 29.6487C12.284 29.1314 9.89525 27.8545 8.02036 25.9797C6.14546 24.1048 4.86864 21.716 4.35135 19.1154C3.83407 16.5149 4.09956 13.8193 5.11425 11.3696C6.12893 8.91998 7.84725 6.82621 10.0519 5.35311C12.2565 3.88001 14.8485 3.09375 17.5 3.09375C21.0544 3.0975 24.4622 4.51115 26.9755 7.0245C29.4889 9.53784 30.9025 12.9456 30.9063 16.5ZM28.8438 16.5C28.8438 14.2564 28.1785 12.0632 26.932 10.1978C25.6855 8.33228 23.9139 6.87832 21.8411 6.01974C19.7683 5.16116 17.4874 4.93652 15.287 5.37422C13.0865 5.81192 11.0652 6.89231 9.47876 8.47876C7.89231 10.0652 6.81192 12.0865 6.37422 14.2869C5.93652 16.4874 6.16117 18.7683 7.01975 20.8411C7.87833 22.9139 9.33229 24.6855 11.1978 25.932C13.0632 27.1785 15.2564 27.8438 17.5 27.8438C20.5075 27.8403 23.3909 26.6441 25.5175 24.5175C27.6441 22.3908 28.8403 19.5075 28.8438 16.5Z" fill="#3C3C3C"/>
</g>
<defs>
<filter id="filter0_d_307_12319" x="-3" y="0" width="41" height="41" filterUnits="userSpaceOnUse" color-interpolation-filters="sRGB">
<feFlood flood-opacity="0" result="BackgroundImageFix"/>
<feColorMatrix in="SourceAlpha" type="matrix" values="0 0 0 0 0 0 0 0 0 0 0 0 0 0 0 0 0 0 127 0" result="hardAlpha"/>
<feOffset dy="4"/>
<feGaussianBlur stdDeviation="2"/>
<feComposite in2="hardAlpha" operator="out"/>
<feColorMatrix type="matrix" values="0 0 0 0 0 0 0 0 0 0 0 0 0 0 0 0 0 0 0.25 0"/>
<feBlend mode="normal" in2="BackgroundImageFix" result="effect1_dropShadow_307_12319"/>
<feBlend mode="normal" in="SourceGraphic" in2="effect1_dropShadow_307_12319" result="shape"/>
</filter>
</defs>
</svg>
