<svg width="25" height="25" viewBox="0 0 25 25" fill="none" xmlns="http://www.w3.org/2000/svg">
<g clip-path="url(#clip0_364_8268)">
<circle cx="12.3652" cy="12" r="11" fill="#D7372B"/>
<path d="M2.86523 21L4.36523 18.5L9.36523 21.5L7.86523 23L2.36523 24L2.86523 21Z" fill="#D7372B"/>
<path d="M12.1702 0.5C12.1638 0.50643 12.151 0.50643 12.1317 0.50643C5.62418 0.50643 0.332031 5.79858 0.332031 12.3061C0.332031 14.9618 1.23871 17.5403 2.89773 19.6173L1.18083 23.6041C1.03937 23.9321 1.19369 24.3115 1.51521 24.4465C1.63096 24.4979 1.75956 24.5108 1.88174 24.4915L8.17702 23.3855C9.43736 23.842 10.762 24.0735 12.0995 24.0671C18.607 24.0671 23.8991 18.775 23.8991 12.2675C23.912 5.77929 18.6584 0.50643 12.1702 0.5ZM12.1059 22.7875C10.8649 22.7875 9.6367 22.5624 8.47281 22.1252C8.3635 22.0801 8.24775 22.0737 8.13201 22.093L2.83342 23.019L4.23523 19.7588C4.33169 19.5337 4.29311 19.2701 4.13235 19.0836C3.37357 18.2027 2.76912 17.1995 2.34472 16.1128C1.86888 14.8975 1.62452 13.605 1.62452 12.2996C1.62452 6.49949 6.34438 1.78606 12.1381 1.78606C17.9189 1.7732 22.6131 6.44804 22.6195 12.2289V12.2675C22.6195 18.0741 17.8997 22.7875 12.1059 22.7875Z" fill="#D7372B"/>
<path d="M11.6037 9.9375H8.13131C7.77765 9.9375 7.48828 10.2269 7.48828 10.5805C7.48828 10.9342 7.77765 11.2236 8.13131 11.2236H11.6037C11.9574 11.2236 12.2467 10.9342 12.2467 10.5805C12.2467 10.2269 11.9574 9.9375 11.6037 9.9375ZM16.1049 13.1527H8.13131C7.77765 13.1527 7.48828 13.442 7.48828 13.7957C7.48828 14.1494 7.77765 14.4387 8.13131 14.4387H16.1049C16.4586 14.4387 16.7479 14.1494 16.7479 13.7957C16.7479 13.442 16.4586 13.1527 16.1049 13.1527Z" fill="#FFFEF9"/>
</g>
<defs>
<clipPath id="clip0_364_8268">
<rect width="24" height="24" fill="white" transform="translate(0.115234 0.5)"/>
</clipPath>
</defs>
</svg>
