<svg width="182" height="178" viewBox="0 0 182 178" fill="none" xmlns="http://www.w3.org/2000/svg">
<path fill-rule="evenodd" clip-rule="evenodd" d="M73.4578 6.36245C77.3725 2.43726 82.7769 0 88.7585 0C95.6848 0 101.872 3.27906 105.827 8.33818C111.511 5.28388 118.492 4.78027 124.842 7.60575C130.351 10.0318 134.324 14.4751 136.306 19.6728C141.802 19.6978 147.328 21.7706 151.553 26.0069C156.449 30.8804 158.516 37.5251 157.745 43.8993C163.911 45.7578 169.183 50.3459 171.696 56.8295C173.89 62.4559 173.525 68.4423 171.253 73.5156C174.878 77.1459 177.215 82.0363 177.544 87.4827L182 91.9436H177.285C176.48 97.5822 173.506 102.506 169.259 105.862C172.299 111.545 172.795 118.514 169.98 124.869L169.977 124.875C167.532 130.363 163.054 134.366 157.827 136.341C157.832 141.891 155.72 147.451 151.505 151.68L151.499 151.687C146.621 156.552 139.999 158.586 133.667 157.852C131.785 163.973 127.228 169.244 120.749 171.727C115.156 173.888 109.176 173.562 104.093 171.266C100.18 175.203 94.7458 177.667 88.7451 177.667C81.838 177.667 75.6968 174.442 71.7383 169.407C66.0832 172.384 59.1651 172.832 52.8764 170.048C47.3698 167.623 43.4035 163.166 41.4203 157.977C35.8469 158.001 30.2525 155.909 25.9883 151.644C21.084 146.738 19.042 140.078 19.8271 133.699C13.743 131.81 8.52373 127.256 6.04698 120.82C3.8851 115.248 4.20147 109.319 6.4382 104.256C2.4613 100.329 0 94.8868 0 88.84C0 81.8978 3.25246 75.7042 8.34663 71.7461C5.35854 66.0853 4.91851 59.1595 7.69492 52.8572L7.69744 52.8515C10.1183 47.3859 14.5177 43.4318 19.6751 41.4317C19.6592 35.8772 21.75 30.3031 25.9982 26.04L26.0017 26.0365C30.9235 21.1132 37.6269 19.0642 44.009 19.8619C45.8863 13.7252 50.4647 8.47048 56.9191 5.96985C62.4808 3.80487 68.3948 4.11126 73.4578 6.36245ZM171.272 87.2243C170.838 82.9582 168.672 79.2184 165.446 76.6786L163.288 74.9796L164.702 72.6243C167.074 68.673 167.686 63.695 165.889 59.0913L165.887 59.0844C163.791 53.6775 159.017 50.124 153.668 49.366L150.149 48.8672L151.104 45.4422C152.554 40.2435 151.223 34.4711 147.155 30.424L147.146 30.4144C143.684 26.94 138.968 25.4915 134.414 26.0077L131.703 26.315L131.041 23.6666C129.924 19.1998 126.852 15.3001 122.326 13.3091L122.314 13.3035C117.049 10.9591 111.149 11.8274 106.802 15.0915L103.954 17.2294L102.213 14.1228C99.5825 9.42818 94.5209 6.23392 88.7585 6.23392C83.8446 6.23392 79.4701 8.54203 76.631 12.1647L74.9371 14.3261L72.5805 12.9171C68.6443 10.5635 63.7449 10.0013 59.1768 11.7802L59.1714 11.7823C53.7926 13.8654 50.2359 18.6314 49.4551 23.9649L48.9401 27.4825L45.5214 26.5117C40.3387 25.04 34.5051 26.3474 30.4094 30.4431C26.9163 33.9497 25.4635 38.7018 26.0226 43.2767L26.3548 45.9946L23.7034 46.6744C19.2554 47.8146 15.3878 50.879 13.3957 55.3746C11.0774 60.6402 11.9031 66.4974 15.097 70.8055L17.2121 73.6585L14.1096 75.3859C9.39168 78.0127 6.23148 83.0539 6.23148 88.84C6.23148 93.8205 8.5634 98.2161 12.226 101.053L14.4055 102.742L12.9961 105.112C10.6512 109.054 10.0786 113.986 11.8573 118.567L11.8609 118.577C13.9176 123.925 18.643 127.461 23.9333 128.265L27.4122 128.794L26.4666 132.184C25.0148 137.39 26.3249 143.165 30.3945 147.235C33.8953 150.737 38.6681 152.194 43.2708 151.623L46.0081 151.283L46.6772 153.96C47.7953 158.434 50.8723 162.356 55.3915 164.344L55.3981 164.347C60.6317 166.664 66.4782 165.843 70.7919 162.665L73.6161 160.585L75.3485 163.636C78.0021 168.309 82.9996 171.433 88.7451 171.433C93.6812 171.433 98.0932 169.089 100.92 165.457L102.626 163.264L104.999 164.709C108.928 167.103 113.901 167.692 118.508 165.91L118.517 165.907C123.879 163.853 127.419 159.094 128.225 153.768L128.747 150.314L132.117 151.225C137.295 152.623 143.052 151.308 147.097 147.274C150.566 143.79 152.039 139.037 151.481 134.47L151.145 131.72L153.836 131.064C158.315 129.971 162.269 126.861 164.285 122.338C166.618 117.066 165.758 111.188 162.518 106.841L160.414 104.016L163.472 102.27C168.127 99.6128 171.272 94.6083 171.272 88.8534V87.2243Z" fill="#F4F1E7"/>
<path d="M71.1878 127.828L43.3359 92.2368L59.533 79.7169L72.7208 96.5685L117.271 49.8281L132.169 63.8563L71.1878 127.828Z" fill="#F4F1E7"/>
</svg>
