<svg width="28" height="22" viewBox="0 0 28 22" fill="none" xmlns="http://www.w3.org/2000/svg">
<path d="M25.7371 16.2578H3.19659C2.43177 16.2578 1.80469 16.7908 1.80469 17.4478V20.807C1.80469 21.4608 2.42814 21.9969 3.19659 21.9969H25.7407C26.5055 21.9969 27.1326 21.4639 27.1326 20.807V17.4478C27.1326 16.7939 26.5092 16.2578 25.7407 16.2578H25.7371ZM3.25459 17.4974H16.8528V20.7543H3.25459V17.4974ZM25.6791 20.7543H18.3064V17.4974H25.6791V20.7543Z" fill="#3C3C3C" fill-opacity="0.933333"/>
<path d="M0.832031 12.7148C0.832031 13.0903 1.14961 13.3913 1.5457 13.3913C1.94178 13.3913 2.25936 13.0903 2.25936 12.7148C2.25936 11.9267 2.53412 11.5614 2.87668 11.1014C3.26919 10.5771 3.75449 9.92424 3.75449 8.70655C3.75449 7.48885 3.26563 6.83603 2.87668 6.30836C2.53412 5.84495 2.25936 5.47964 2.25936 4.69152C2.25936 3.9034 2.53412 3.53809 2.87668 3.07469C3.26919 2.5504 3.75449 1.89758 3.75449 0.676499C3.75449 0.301042 3.4369 0 3.04082 0C2.64474 0 2.32716 0.301042 2.32716 0.676499C2.32716 1.46462 2.0524 1.82993 1.70984 2.29333C1.31732 2.81762 0.832031 3.47044 0.832031 4.69152C0.832031 5.9126 1.32089 6.56204 1.70984 7.08971C2.05597 7.55311 2.32716 7.91842 2.32716 8.70316C2.32716 9.4879 2.0524 9.8566 1.70984 10.3166C1.31732 10.8409 0.832031 11.4937 0.832031 12.7148Z" fill="#3C3C3C" fill-opacity="0.933333"/>
<path d="M5.70312 12.7146C5.70312 13.0902 6.0207 13.3913 6.41678 13.3913C6.81286 13.3913 7.13044 13.0902 7.13044 12.7146C7.13044 11.9263 7.4052 11.5609 7.74775 11.1008C8.14026 10.5764 8.62555 9.92337 8.62555 8.70536C8.62555 7.48736 8.13669 6.83437 7.74775 6.30657C7.40163 5.84305 7.13044 5.47764 7.13044 4.69271C7.13044 3.90777 7.4052 3.53899 7.74775 3.07885C8.14026 2.55443 8.62555 1.90144 8.62555 0.680054C8.62912 0.304502 8.30797 0 7.91546 0C7.52295 0 7.2018 0.301118 7.2018 0.67667C7.2018 1.46499 6.92705 1.83039 6.58449 2.29053C6.19198 2.81495 5.70669 3.46793 5.70669 4.68932C5.70669 5.91071 6.19555 6.5637 6.58449 7.08812C6.93061 7.55164 7.2018 7.91704 7.2018 8.70198C7.2018 9.48692 6.92705 9.8557 6.58449 10.3158C6.19198 10.8403 5.70669 11.4932 5.70669 12.7112L5.70312 12.7146Z" fill="#3C3C3C" fill-opacity="0.933333"/>
</svg>
