<svg width="20" height="20" viewBox="0 0 20 20" fill="none" xmlns="http://www.w3.org/2000/svg">
<path fill-rule="evenodd" clip-rule="evenodd" d="M20 9.99952C20 4.49954 15.4997 -3.93428e-07 10 -8.74228e-07C4.50029 -1.35503e-06 1.35509e-06 4.49954 8.74355e-07 9.99854C3.93277e-07 15.5014 4.50029 20 10 20C15.4997 20 20 15.5014 20 9.99952ZM18.3327 9.99952C18.3327 14.5836 14.5829 18.3336 10 18.3336C5.41707 18.3336 1.66634 14.5836 1.66634 9.99951C1.66634 5.41636 5.41707 1.66642 10 1.66642C14.5829 1.66642 18.3327 5.41636 18.3327 9.99952ZM9.16683 14.9988L10.8332 14.9988L10.8332 8.33115L9.16683 8.33115L9.16683 14.9988ZM10 4.16412C9.83295 4.15945 9.66666 4.18833 9.51095 4.24905C9.35525 4.30976 9.2133 4.40108 9.0935 4.51759C8.97369 4.63411 8.87846 4.77347 8.81343 4.92742C8.7484 5.08138 8.7149 5.24681 8.7149 5.41393C8.7149 5.58106 8.7484 5.74649 8.81343 5.90044C8.87846 6.0544 8.97369 6.19375 9.0935 6.31027C9.2133 6.42679 9.35525 6.5181 9.51095 6.57882C9.66665 6.63953 9.83295 6.66841 10 6.66375C10.3228 6.65101 10.6281 6.51382 10.852 6.28091C11.0759 6.04801 11.2009 5.73748 11.2009 5.41442C11.2009 5.09135 11.0759 4.78083 10.852 4.54793C10.6281 4.31502 10.3228 4.17685 10 4.16412Z" fill="#3C3C3C" fill-opacity="0.933333"/>
</svg>
