<svg width="25" height="10" viewBox="0 0 25 10" fill="none" xmlns="http://www.w3.org/2000/svg">
<path fill-rule="evenodd" clip-rule="evenodd" d="M12.2149 0.168948C12.2792 0.228133 12.3317 0.300167 12.3692 0.380862C12.4068 0.461557 12.4288 0.549303 12.4338 0.638996C12.4389 0.728689 12.4269 0.818541 12.3986 0.903327C12.3703 0.988113 12.3263 1.06614 12.2691 1.13287L5.48993 9.04289C5.43243 9.10988 5.36279 9.16413 5.28509 9.20245C5.20738 9.24077 5.12318 9.26239 5.03743 9.26605C4.95167 9.26971 4.86608 9.25534 4.78568 9.22377C4.70528 9.1922 4.63168 9.14407 4.5692 9.08221L0.646415 5.20007C0.528731 5.08194 0.457476 4.92169 0.446732 4.751C0.435988 4.5803 0.486535 4.41158 0.588386 4.27817C0.643363 4.20585 0.711746 4.14602 0.789386 4.10233C0.867026 4.05863 0.952303 4.03198 1.04004 4.024C1.12777 4.01601 1.21614 4.02685 1.29977 4.05586C1.38339 4.08487 1.46054 4.13145 1.52653 4.19276L4.56985 7.07098C4.69692 7.19122 4.86421 7.25348 5.03493 7.24408C5.20566 7.23467 5.36584 7.15436 5.48026 7.02082L11.3109 0.223855C11.4244 0.0915607 11.5829 0.0115597 11.7521 0.00115748C11.9212 -0.00924475 12.0875 0.0507879 12.2149 0.16827V0.168948Z" fill="#D7372B"/>
<path fill-rule="evenodd" clip-rule="evenodd" d="M24.7696 0.168948C24.8339 0.228133 24.8863 0.300167 24.9239 0.380862C24.9615 0.461557 24.9835 0.549303 24.9885 0.638996C24.9935 0.728689 24.9816 0.818541 24.9533 0.903327C24.925 0.988113 24.881 1.06614 24.8237 1.13287L18.0446 9.04289C17.9871 9.10988 17.9175 9.16412 17.8398 9.20245C17.7621 9.24077 17.6779 9.26239 17.5921 9.26605C17.5064 9.26971 17.4208 9.25534 17.3404 9.22377C17.26 9.1922 17.1864 9.14407 17.1239 9.08221L13.2011 5.20007C13.0834 5.08194 13.0122 4.92169 13.0014 4.751C12.9907 4.5803 13.0412 4.41158 13.1431 4.27817C13.1981 4.20585 13.2664 4.14602 13.3441 4.10233C13.4217 4.05863 13.507 4.03198 13.5947 4.024C13.6825 4.01601 13.7708 4.02685 13.8545 4.05586C13.9381 4.08487 14.0152 4.13145 14.0812 4.19276L17.1245 7.07098C17.2516 7.19122 17.4189 7.25348 17.5896 7.24408C17.7603 7.23467 17.9205 7.15436 18.0349 7.02082L23.8656 0.223855C23.9791 0.0915607 24.1376 0.0115597 24.3068 0.00115748C24.4759 -0.00924475 24.6422 0.051466 24.7696 0.168948Z" fill="#D7372B"/>
</svg>
