<svg width="42" height="42" viewBox="0 0 42 42" fill="none" xmlns="http://www.w3.org/2000/svg">
<path d="M35.0543 16.6793L21.9293 29.8043C21.8074 29.9264 21.6627 30.0232 21.5033 30.0892C21.344 30.1553 21.1732 30.1893 21.0007 30.1893C20.8282 30.1893 20.6575 30.1553 20.4981 30.0892C20.3388 30.0232 20.194 29.9264 20.0721 29.8043L6.94714 16.6793C6.70086 16.433 6.5625 16.099 6.5625 15.7507C6.5625 15.4024 6.70086 15.0684 6.94714 14.8221C7.19341 14.5759 7.52744 14.4375 7.87573 14.4375C8.22402 14.4375 8.55805 14.5759 8.80432 14.8221L21.0007 27.0202L33.1971 14.8221C33.3191 14.7002 33.4639 14.6035 33.6232 14.5375C33.7825 14.4715 33.9533 14.4375 34.1257 14.4375C34.2982 14.4375 34.469 14.4715 34.6283 14.5375C34.7876 14.6035 34.9324 14.7002 35.0543 14.8221C35.1763 14.9441 35.273 15.0888 35.339 15.2482C35.405 15.4075 35.439 15.5783 35.439 15.7507C35.439 15.9232 35.405 16.094 35.339 16.2533C35.273 16.4126 35.1763 16.5574 35.0543 16.6793Z" fill="#707070"/>
</svg>
