<svg width="36" height="36" viewBox="0 0 36 36" fill="none" xmlns="http://www.w3.org/2000/svg">
<path fill-rule="evenodd" clip-rule="evenodd" d="M2.57031 17.9963C2.57031 9.51231 9.51381 2.57031 17.9993 2.57031C26.4848 2.57031 33.4283 9.51081 33.4283 17.9963C33.4283 26.4818 26.4848 33.4238 17.9993 33.4238C9.51381 33.4238 2.57031 26.4833 2.57031 17.9978V17.9963ZM5.14281 17.9963C5.14281 25.0688 10.9283 30.8543 17.9993 30.8543C25.0703 30.8543 30.8573 25.0688 30.8573 17.9978C30.8573 10.9253 25.0703 5.13981 17.9993 5.13981C10.9283 5.13981 5.14281 10.9253 5.14281 17.9978V17.9963ZM17.9993 16.1963L24.3638 9.83181L26.1638 11.6318L19.7993 17.9948L26.1638 24.3593L24.3638 26.1593L17.9993 19.7963L11.6348 26.1593L9.83481 24.3593L16.1993 17.9963L9.83481 11.6318L11.6348 9.83181L17.9993 16.1948V16.1963Z" fill="#F4F1E7"/>
</svg>
