<svg width="11" height="11" viewBox="0 0 11 11" fill="none" xmlns="http://www.w3.org/2000/svg">
<path d="M4.11639 9.12775L1 10L1.87259 6.88483L7.57905 1.20828C7.64352 1.14235 7.7206 1.08996 7.80558 1.05419C7.89062 1.01842 7.98196 1 8.07421 1C8.16645 1 8.2578 1.01842 8.34284 1.05419C8.42781 1.08996 8.50489 1.14235 8.56937 1.20828L9.79515 2.44051C9.86004 2.50486 9.91156 2.58143 9.94674 2.66579C9.98192 2.75015 10 2.84063 10 2.93202C10 3.0234 9.98192 3.11389 9.94674 3.19825C9.91156 3.28261 9.86004 3.35917 9.79515 3.42352L4.11639 9.12775Z" stroke="#3C3C3C" stroke-opacity="0.933333" stroke-width="2" stroke-linecap="round" stroke-linejoin="round"/>
</svg>
