<svg width="39" height="39" viewBox="0 0 39 39" fill="none" xmlns="http://www.w3.org/2000/svg">
<circle cx="19.5422" cy="19.4582" r="19.4582" fill="#F4F1E7"/>
<circle cx="19.5422" cy="19.4582" r="18.6082" stroke="#3C3C3C" stroke-opacity="0.933333" stroke-width="1.7"/>
<g clip-path="url(#clip0_391_2944)">
<path d="M21.6714 21.2536C21.1739 21.5853 20.5959 21.7606 20 21.7606C19.4041 21.7606 18.8262 21.5853 18.3286 21.2536L10.1332 15.7898C10.0879 15.7595 10.0435 15.728 10 15.6954V24.6484C10 25.6748 10.833 26.4895 11.8411 26.4895H28.1588C29.1853 26.4895 30 25.6565 30 24.6484V15.6953C29.9564 15.7281 29.9119 15.7596 29.8665 15.7899L21.6714 21.2536Z" fill="#3C3C3C" fill-opacity="0.933333"/>
<path d="M10.7832 14.8122L18.9786 20.276C19.2889 20.4829 19.6444 20.5863 20 20.5863C20.3555 20.5863 20.7111 20.4828 21.0214 20.276L29.2168 14.8122C29.7072 14.4854 30 13.9386 30 13.3483C30 12.3334 29.1743 11.5078 28.1595 11.5078H11.8405C10.8257 11.5079 10 12.3335 10 13.3493C9.9997 13.6388 10.0711 13.9239 10.2077 14.1792C10.3444 14.4344 10.5421 14.6519 10.7832 14.8122Z" fill="#3C3C3C" fill-opacity="0.933333"/>
</g>
<defs>
<clipPath id="clip0_391_2944">
<rect width="20" height="20" fill="white" transform="translate(10 9)"/>
</clipPath>
</defs>
</svg>
