<svg width="40" height="39" viewBox="0 0 40 39" fill="none" xmlns="http://www.w3.org/2000/svg">
<circle cx="20.3625" cy="19.4582" r="19.4582" fill="#F4F1E7"/>
<circle cx="20.3625" cy="19.4582" r="18.6082" stroke="#3C3C3C" stroke-opacity="0.933333" stroke-width="1.7"/>
<path d="M30.976 19.8975C30.976 14.2801 26.4221 9.72622 20.8046 9.72622C15.1872 9.72622 10.6333 14.2801 10.6333 19.8975C10.6333 24.9744 14.3528 29.1823 19.2154 29.9453V22.8377H16.6328V19.8975H19.2154V17.6567C19.2154 15.1075 20.7339 13.6994 23.0572 13.6994C24.17 13.6994 25.334 13.8981 25.334 13.8981V16.4012H24.0515C22.7879 16.4012 22.3939 17.1852 22.3939 17.9896V19.8975H25.2149L24.7639 22.8377H22.3939V29.9453C27.2564 29.1823 30.976 24.9744 30.976 19.8975Z" fill="#3C3C3C" fill-opacity="0.933333"/>
</svg>
