<svg width="68" height="68" viewBox="0 0 68 68" fill="none" xmlns="http://www.w3.org/2000/svg">
<path d="M52.5455 34.7713C52.5455 24.9557 44.5883 16.9986 34.7727 16.9986C24.9571 16.9986 17 24.9557 17 34.7713C17 43.6422 23.4992 50.9948 31.9957 52.3281V39.9087H27.4831V34.7713H31.9957V30.8557C31.9957 26.4015 34.6491 23.941 38.7088 23.941C40.6532 23.941 42.6871 24.2882 42.6871 24.2882V28.6619H40.446C38.2382 28.6619 37.5497 30.0319 37.5497 31.4374V34.7713H42.4789L41.6909 39.9087H37.5497V52.3281C46.0462 50.9948 52.5455 43.6422 52.5455 34.7713Z" fill="#F4F1E7"/>
<circle cx="34" cy="34" r="33.15" stroke="#F4F1E7" stroke-width="1.7"/>
</svg>
