<svg width="40" height="39" viewBox="0 0 40 39" fill="none" xmlns="http://www.w3.org/2000/svg">
<circle cx="20.4103" cy="19.4582" r="19.4582" fill="#F4F1E7"/>
<circle cx="20.4103" cy="19.4582" r="18.6082" stroke="#3C3C3C" stroke-opacity="0.933333" stroke-width="1.7"/>
<path fill-rule="evenodd" clip-rule="evenodd" d="M30.6174 20.129C30.6174 19.4078 30.5527 18.7143 30.4325 18.0485H20.853V21.983H26.327C26.0912 23.2544 25.3746 24.3316 24.2973 25.0529L25.734 26.1683L27.5845 27.605C29.5078 25.8342 30.6174 23.2267 30.6174 20.129Z" fill="#3C3C3C" fill-opacity="0.933333"/>
<path fill-rule="evenodd" clip-rule="evenodd" d="M20.8529 30.0691C23.5992 30.0691 25.9016 29.1584 27.5845 27.605L24.2973 25.0529C23.3866 25.6632 22.2214 26.0236 20.8529 26.0236C18.2038 26.0236 15.9615 24.2344 15.1616 21.8303L13.4625 23.1479L11.7635 24.4656C13.4371 27.7898 16.8769 30.0691 20.8529 30.0691Z" fill="#3C3C3C" fill-opacity="0.933333"/>
<path fill-rule="evenodd" clip-rule="evenodd" d="M15.1616 21.8303C14.9582 21.22 14.8426 20.5684 14.8426 19.898C14.8426 19.2276 14.9582 18.5757 15.1616 17.9654L13.4626 16.6478L11.7635 15.3301C11.0746 16.7033 10.6816 18.2567 10.6816 19.898C10.6816 21.5393 11.0746 23.0924 11.7635 24.4656L15.1616 21.8303Z" fill="#3C3C3C" fill-opacity="0.933333"/>
<path fill-rule="evenodd" clip-rule="evenodd" d="M20.8529 13.772C22.3463 13.772 23.687 14.2852 24.7412 15.2931L27.6585 12.3757C25.897 10.7344 23.5946 9.72656 20.8529 9.72656C16.8769 9.72656 13.4371 12.006 11.7635 15.3301L15.1616 17.9654C15.9615 15.5613 18.2038 13.772 20.8529 13.772Z" fill="#3C3C3C" fill-opacity="0.933333"/>
</svg>
