<svg width="25" height="25" viewBox="0 0 25 25" fill="none" xmlns="http://www.w3.org/2000/svg">
<path d="M20.5402 7.31774L14.7802 3.28774C13.2102 2.18774 10.8002 2.24774 9.29023 3.41774L4.28023 7.32774C3.28023 8.10774 2.49023 9.70774 2.49023 10.9677V17.8677C2.49023 20.4177 4.56023 22.4977 7.11023 22.4977H17.8902C20.4402 22.4977 22.5102 20.4277 22.5102 17.8777V11.0977C22.5102 9.74774 21.6402 8.08774 20.5402 7.31774ZM13.2502 18.4977C13.2502 18.9077 12.9102 19.2477 12.5002 19.2477C12.0902 19.2477 11.7502 18.9077 11.7502 18.4977V15.4977C11.7502 15.0877 12.0902 14.7477 12.5002 14.7477C12.9102 14.7477 13.2502 15.0877 13.2502 15.4977V18.4977Z" fill="#D7372B"/>
</svg>
