<svg width="27" height="28" viewBox="0 0 27 28" fill="none" xmlns="http://www.w3.org/2000/svg">
<path d="M15.6342 4.25045L15.6346 4.25073L22.1144 8.78438C22.612 9.1327 23.0938 9.71278 23.4519 10.3986C23.8099 11.0844 24.0108 11.812 24.0108 12.4225V20.05C24.0108 22.5045 22.0178 24.4975 19.5633 24.4975H7.43578C4.98335 24.4975 2.98828 22.4954 2.98828 20.0387V12.2762C2.98828 11.7108 3.1698 11.0203 3.49614 10.3575C3.82229 9.69511 4.26114 9.12528 4.71331 8.77258L4.71347 8.77246L10.3476 4.37532C10.348 4.37507 10.3483 4.37483 10.3486 4.37458C11.7876 3.26036 14.1375 3.20181 15.6342 4.25045ZM13.4995 22.3412C14.375 22.3412 15.0933 21.6229 15.0933 20.7475V17.3725C15.0933 16.497 14.375 15.7787 13.4995 15.7787C12.6241 15.7787 11.9058 16.497 11.9058 17.3725V20.7475C11.9058 21.6229 12.6241 22.3412 13.4995 22.3412Z" stroke="#3C3C3C" stroke-opacity="0.933333" stroke-width="1.5"/>
</svg>
