<svg width="60" height="60" viewBox="0 0 60 60" fill="none" xmlns="http://www.w3.org/2000/svg">
<rect width="60" height="60" rx="30" fill="#F4F1E7"/>
<path d="M42.8954 22.2266L34.0154 16.1816C31.595 14.5316 27.8796 14.6216 25.5517 16.3766L17.8279 22.2416C16.2863 23.4116 15.0684 25.8116 15.0684 27.7016V38.0516C15.0684 41.8766 18.2596 44.9966 22.1909 44.9966H38.81C42.7413 44.9966 45.9325 41.8916 45.9325 38.0666V27.8966C45.9325 25.8716 44.5913 23.3816 42.8954 22.2266ZM31.6567 38.9966C31.6567 39.6116 31.1325 40.1216 30.5004 40.1216C29.8684 40.1216 29.3442 39.6116 29.3442 38.9966V34.4966C29.3442 33.8816 29.8684 33.3716 30.5004 33.3716C31.1325 33.3716 31.6567 33.8816 31.6567 34.4966V38.9966Z" fill="#D7372B"/>
</svg>
