<svg width="73" height="73" viewBox="0 0 73 73" fill="none" xmlns="http://www.w3.org/2000/svg">
<path fill-rule="evenodd" clip-rule="evenodd" d="M36.5 0C26.5866 0 25.3456 0.0413667 21.4523 0.219C17.5662 0.396633 14.9115 1.0147 12.5901 1.91747C10.1567 2.8324 7.9497 4.26807 6.1247 6.12713C4.26861 7.95003 2.83206 10.1555 1.91503 12.5901C1.01713 14.9115 0.396633 17.5687 0.219 21.4547C0.0438 25.3456 0 26.5842 0 36.5C0 46.4158 0.0413667 47.6544 0.219 51.5477C0.396633 55.4338 1.0147 58.0885 1.91747 60.4099C2.8324 62.8433 4.26807 65.0503 6.12713 66.8753C7.95008 68.7313 10.1555 70.1679 12.5901 71.085C14.9115 71.9853 17.5662 72.6034 21.4523 72.781C25.3456 72.9586 26.5866 73 36.5 73C46.4134 73 47.6544 72.9586 51.5477 72.781C55.4338 72.6034 58.0885 71.9853 60.4099 71.0825C62.8433 70.1676 65.0503 68.7319 66.8753 66.8729C68.7314 65.05 70.1679 62.8445 71.085 60.4099C71.9853 58.0885 72.6034 55.4338 72.781 51.5477C72.9586 47.6544 73 46.4134 73 36.5C73 26.5866 72.9586 25.3456 72.781 21.4523C72.6034 17.5662 71.9853 14.9115 71.0825 12.5901C70.1662 10.1545 68.7296 7.94805 66.8729 6.1247C65.05 4.26861 62.8445 2.83206 60.4099 1.91503C58.0885 1.01713 55.4313 0.396633 51.5453 0.219C47.6544 0.0438 46.4158 0 36.5 0ZM36.5 6.5773C46.2455 6.5773 47.4013 6.6138 51.2509 6.789C54.8084 6.95203 56.7405 7.54333 58.0277 8.04703C59.731 8.70647 60.9477 9.49973 62.2252 10.7748C63.5027 12.0523 64.2935 13.269 64.953 14.9723C65.4542 16.2595 66.048 18.1916 66.211 21.7491C66.3862 25.5987 66.4227 26.7545 66.4227 36.5C66.4227 46.2455 66.3862 47.4013 66.211 51.2509C66.048 54.8084 65.4567 56.7405 64.953 58.0277C64.3688 59.6131 63.4367 61.0475 62.2252 62.2252C61.0477 63.437 59.6133 64.3691 58.0277 64.953C56.7405 65.4542 54.8084 66.048 51.2509 66.211C47.4013 66.3862 46.2479 66.4227 36.5 66.4227C26.7521 66.4227 25.5987 66.3862 21.7491 66.211C18.1916 66.048 16.2595 65.4567 14.9723 64.953C13.3869 64.3688 11.9525 63.4367 10.7748 62.2252C9.56343 61.0473 8.63135 59.6131 8.04703 58.0277C7.54577 56.7405 6.95203 54.8084 6.789 51.2509C6.6138 47.4013 6.5773 46.2455 6.5773 36.5C6.5773 26.7545 6.6138 25.5987 6.789 21.7491C6.95203 18.1916 7.54333 16.2595 8.04703 14.9723C8.70647 13.269 9.49973 12.0523 10.7748 10.7748C11.9524 9.56311 13.3868 8.63097 14.9723 8.04703C16.2595 7.54577 18.1916 6.95203 21.7491 6.789C25.5987 6.6138 26.7545 6.5773 36.5 6.5773Z" fill="#D7372B"/>
<path fill-rule="evenodd" clip-rule="evenodd" d="M36.5012 48.6684C34.9019 48.6684 33.3182 48.3534 31.8406 47.7413C30.363 47.1293 29.0204 46.2322 27.8895 45.1013C26.7586 43.9704 25.8615 42.6278 25.2495 41.1502C24.6374 39.6726 24.3224 38.0889 24.3224 36.4895C24.3224 34.8902 24.6374 33.3065 25.2495 31.8289C25.8615 30.3513 26.7586 29.0087 27.8895 27.8778C29.0204 26.7469 30.363 25.8498 31.8406 25.2378C33.3182 24.6257 34.9019 24.3107 36.5012 24.3107C39.7312 24.3107 42.829 25.5938 45.113 27.8778C47.3969 30.1618 48.68 33.2595 48.68 36.4895C48.68 39.7196 47.3969 42.8173 45.113 45.1013C42.829 47.3852 39.7312 48.6684 36.5012 48.6684ZM36.5012 17.7285C31.5255 17.7285 26.7536 19.7051 23.2352 23.2235C19.7168 26.7419 17.7402 31.5138 17.7402 36.4895C17.7402 41.4653 19.7168 46.2372 23.2352 49.7556C26.7536 53.2739 31.5255 55.2505 36.5012 55.2505C41.4769 55.2505 46.2489 53.2739 49.7672 49.7556C53.2856 46.2372 55.2622 41.4653 55.2622 36.4895C55.2622 31.5138 53.2856 26.7419 49.7672 23.2235C46.2489 19.7051 41.4769 17.7285 36.5012 17.7285ZM60.7202 17.3879C60.7202 18.564 60.2529 19.692 59.4213 20.5237C58.5896 21.3554 57.4616 21.8226 56.2854 21.8226C55.1093 21.8226 53.9813 21.3554 53.1496 20.5237C52.3179 19.692 51.8507 18.564 51.8507 17.3879C51.8507 16.2117 52.3179 15.0837 53.1496 14.252C53.9813 13.4204 55.1093 12.9531 56.2854 12.9531C57.4616 12.9531 58.5896 13.4204 59.4213 14.252C60.2529 15.0837 60.7202 16.2117 60.7202 17.3879Z" fill="#D7372B"/>
</svg>
