<svg width="68" height="68" viewBox="0 0 68 68" fill="none" xmlns="http://www.w3.org/2000/svg">
<circle cx="34" cy="34" r="33.15" stroke="#F4F1E7" stroke-width="1.7"/>
<path fill-rule="evenodd" clip-rule="evenodd" d="M33.3639 17C28.9194 17 28.3631 17.0185 26.6176 17.0982C24.8754 17.1778 23.6852 17.4549 22.6444 17.8596C21.5535 18.2698 20.564 18.9135 19.7459 19.7469C18.9137 20.5642 18.2697 21.553 17.8586 22.6444C17.456 23.6852 17.1778 24.8765 17.0982 26.6187C17.0196 28.3631 17 28.9183 17 33.3639C17 37.8094 17.0185 38.3647 17.0982 40.1101C17.1778 41.8523 17.4549 43.0425 17.8596 44.0833C18.2698 45.1742 18.9135 46.1637 19.7469 46.9819C20.5642 47.814 21.553 48.458 22.6444 48.8692C23.6852 49.2728 24.8754 49.5499 26.6176 49.6295C28.3631 49.7092 28.9194 49.7277 33.3639 49.7277C37.8083 49.7277 38.3647 49.7092 40.1101 49.6295C41.8523 49.5499 43.0425 49.2728 44.0833 48.8681C45.1742 48.4579 46.1637 47.8142 46.9819 46.9808C47.814 46.1635 48.458 45.1748 48.8692 44.0833C49.2728 43.0425 49.5499 41.8523 49.6295 40.1101C49.7092 38.3647 49.7277 37.8083 49.7277 33.3639C49.7277 28.9194 49.7092 28.3631 49.6295 26.6176C49.5499 24.8754 49.2728 23.6852 48.8681 22.6444C48.4572 21.5525 47.8132 20.5633 46.9808 19.7459C46.1635 18.9137 45.1748 18.2697 44.0833 17.8586C43.0425 17.456 41.8512 17.1778 40.109 17.0982C38.3647 17.0196 37.8094 17 33.3639 17ZM33.3639 19.9488C37.733 19.9488 38.2512 19.9651 39.977 20.0437C41.572 20.1168 42.4382 20.3819 43.0153 20.6077C43.7789 20.9033 44.3244 21.259 44.8971 21.8306C45.4698 22.4033 45.8244 22.9488 46.12 23.7125C46.3448 24.2896 46.6109 25.1557 46.684 26.7507C46.7626 28.4765 46.779 28.9947 46.779 33.3639C46.779 37.733 46.7626 38.2512 46.684 39.977C46.6109 41.572 46.3459 42.4382 46.12 43.0153C45.8581 43.726 45.4403 44.3691 44.8971 44.8971C44.3692 45.4404 43.7261 45.8583 43.0153 46.12C42.4382 46.3448 41.572 46.6109 39.977 46.684C38.2512 46.7626 37.7341 46.779 33.3639 46.779C28.9936 46.779 28.4765 46.7626 26.7507 46.684C25.1557 46.6109 24.2896 46.3459 23.7125 46.12C23.0017 45.8581 22.3586 45.4403 21.8306 44.8971C21.2875 44.369 20.8696 43.726 20.6077 43.0153C20.383 42.4382 20.1168 41.572 20.0437 39.977C19.9651 38.2512 19.9488 37.733 19.9488 33.3639C19.9488 28.9947 19.9651 28.4765 20.0437 26.7507C20.1168 25.1557 20.3819 24.2896 20.6077 23.7125C20.9033 22.9488 21.259 22.4033 21.8306 21.8306C22.3586 21.2874 23.0016 20.8695 23.7125 20.6077C24.2896 20.383 25.1557 20.1168 26.7507 20.0437C28.4765 19.9651 28.9947 19.9488 33.3639 19.9488Z" fill="#F4F1E7"/>
<path fill-rule="evenodd" clip-rule="evenodd" d="M33.3641 38.8245C32.6471 38.8245 31.9371 38.6833 31.2747 38.4089C30.6122 38.1345 30.0103 37.7323 29.5033 37.2253C28.9963 36.7183 28.5941 36.1164 28.3197 35.4539C28.0453 34.7915 27.9041 34.0815 27.9041 33.3645C27.9041 32.6474 28.0453 31.9374 28.3197 31.275C28.5941 30.6125 28.9963 30.0106 29.5033 29.5036C30.0103 28.9966 30.6122 28.5944 31.2747 28.32C31.9371 28.0456 32.6471 27.9044 33.3641 27.9044C34.8122 27.9044 36.201 28.4796 37.225 29.5036C38.249 30.5276 38.8242 31.9164 38.8242 33.3645C38.8242 34.8126 38.249 36.2014 37.225 37.2253C36.201 38.2493 34.8122 38.8245 33.3641 38.8245ZM33.3641 24.9534C31.1334 24.9534 28.994 25.8396 27.4167 27.417C25.8393 28.9943 24.9531 31.1337 24.9531 33.3645C24.9531 35.5952 25.8393 37.7346 27.4167 39.312C28.994 40.8893 31.1334 41.7755 33.3641 41.7755C35.5949 41.7755 37.7343 40.8893 39.3116 39.312C40.889 37.7346 41.7752 35.5952 41.7752 33.3645C41.7752 31.1337 40.889 28.9943 39.3116 27.417C37.7343 25.8396 35.5949 24.9534 33.3641 24.9534ZM44.2221 24.8007C44.2221 25.328 44.0126 25.8337 43.6398 26.2066C43.2669 26.5794 42.7612 26.7889 42.2339 26.7889C41.7066 26.7889 41.2009 26.5794 40.828 26.2066C40.4552 25.8337 40.2457 25.328 40.2457 24.8007C40.2457 24.2734 40.4552 23.7677 40.828 23.3948C41.2009 23.022 41.7066 22.8125 42.2339 22.8125C42.7612 22.8125 43.2669 23.022 43.6398 23.3948C44.0126 23.7677 44.2221 24.2734 44.2221 24.8007Z" fill="#F4F1E7"/>
</svg>
