<svg width="28" height="24" viewBox="0 0 28 24" fill="none" xmlns="http://www.w3.org/2000/svg">
<path d="M12 12C14.7614 12 17 9.76142 17 7C17 4.23858 14.7614 2 12 2C9.23858 2 7 4.23858 7 7C7 9.76142 9.23858 12 12 12Z" stroke="#F4F1E7" stroke-width="1.5" stroke-linecap="round" stroke-linejoin="round"/>
<path d="M20.5901 22C20.5901 18.13 16.7402 15 12.0002 15C7.26015 15 3.41016 18.13 3.41016 22" stroke="#F4F1E7" stroke-width="1.5" stroke-linecap="round" stroke-linejoin="round"/>
<g clip-path="url(#clip0_307_10145)">
<path d="M26.875 14.4375C26.9911 14.3215 27.0563 14.1641 27.0563 14C27.0563 13.8359 26.9911 13.6785 26.875 13.5625C26.759 13.4464 26.6016 13.3812 26.4375 13.3812H23.6188V10.5625C23.6188 10.3984 23.5536 10.241 23.4375 10.125C23.3215 10.0089 23.1641 9.94375 23 9.94375C22.8359 9.94375 22.6785 10.0089 22.5625 10.125C22.4464 10.241 22.3812 10.3984 22.3812 10.5625V13.3812H19.5625C19.3984 13.3812 19.241 13.4464 19.125 13.5625C19.0089 13.6785 18.9437 13.8359 18.9437 14C18.9437 14.1641 19.0089 14.3215 19.125 14.4375C19.241 14.5536 19.3984 14.6188 19.5625 14.6188H22.3812V17.4375C22.3812 17.6016 22.4464 17.759 22.5625 17.875C22.6785 17.9911 22.8359 18.0563 23 18.0563C23.1641 18.0563 23.3215 17.9911 23.4375 17.875C23.5536 17.759 23.6188 17.6016 23.6188 17.4375V14.6188H26.4375C26.6016 14.6188 26.759 14.5536 26.875 14.4375Z" fill="#F4F1E7" stroke="#F4F1E7" stroke-width="0.3"/>
</g>
<defs>
<clipPath id="clip0_307_10145">
<rect width="10" height="10" fill="white" transform="translate(18 9)"/>
</clipPath>
</defs>
</svg>
