<svg width="30" height="24" viewBox="0 0 30 24" fill="none" xmlns="http://www.w3.org/2000/svg">
<g clip-path="url(#clip0_949_6936)">
<path d="M5.42394 6.40879H7.04994C7.30794 6.99984 7.88994 8.17596 8.81994 9.31625C8.10594 10.0088 7.22994 10.5879 6.20394 10.8088C5.87994 10.8804 5.67594 11.1969 5.74794 11.5192C5.80794 11.7998 6.05994 11.9909 6.33594 11.9909C6.37794 11.9909 6.41994 11.9849 6.46194 11.9789C7.73394 11.7043 8.78394 11.0177 9.63594 10.1998C10.4879 11.0118 11.5379 11.6983 12.8099 11.9789C12.8519 11.9909 12.8939 11.9909 12.9359 11.9909C13.2119 11.9909 13.4579 11.7998 13.5239 11.5192C13.5959 11.1969 13.3919 10.8804 13.0679 10.8088C12.0359 10.5879 11.1659 10.0088 10.4519 9.31625C11.3819 8.17596 11.9579 7.00581 12.2219 6.40879H13.8479C14.1779 6.40879 14.4479 6.14014 14.4479 5.81178C14.4479 5.48342 14.1779 5.21476 13.8479 5.21476H10.2419V4.0267C10.2419 3.69834 9.97194 3.42969 9.64194 3.42969C9.31194 3.42969 9.04194 3.69834 9.04194 4.0267V5.21476H5.43594C5.10594 5.21476 4.83594 5.48342 4.83594 5.81178C4.83594 6.14014 5.09394 6.40879 5.42394 6.40879ZM9.62994 8.40879C9.05994 7.68043 8.64594 6.94611 8.37594 6.40879H10.8839C10.6139 6.95208 10.1939 7.6864 9.62994 8.40879Z" fill="#3C3C3C" fill-opacity="0.933333"/>
<path d="M19.8909 18.3571C20.1969 18.4825 20.5449 18.3392 20.6769 18.0347L21.4029 16.3034H24.5889L25.3149 18.0347C25.4109 18.2616 25.6329 18.3989 25.8669 18.3989C25.9449 18.3989 26.0229 18.381 26.1009 18.3511C26.4069 18.2257 26.5509 17.8735 26.4249 17.569L25.5429 15.4735L23.5509 10.7392C23.4549 10.5183 23.2389 10.375 22.9989 10.375C22.7589 10.375 22.5369 10.5183 22.4469 10.7392L20.4549 15.4795L19.5729 17.575C19.4469 17.8854 19.5909 18.2377 19.8969 18.3631L19.8909 18.3571ZM22.9929 12.5183L24.0849 15.1153H21.9009L22.9929 12.5183Z" fill="#3C3C3C" fill-opacity="0.933333"/>
<path d="M2.862 15.4328H3.282V18.1433C3.282 18.3821 3.426 18.603 3.654 18.6925C3.726 18.7224 3.804 18.7403 3.882 18.7403C4.038 18.7403 4.194 18.6806 4.308 18.5672L7.452 15.4388H13.2V18.603C13.2 20.006 14.346 21.1463 15.756 21.1463H23.448L26.142 23.8269C26.256 23.9403 26.412 24 26.568 24C26.646 24 26.724 23.9881 26.796 23.9522C27.018 23.8627 27.168 23.6418 27.168 23.403V21.1463H27.444C28.854 21.1463 30 20.006 30 18.603V10.1851C30 8.78209 28.854 7.64179 27.444 7.64179H19.26V2.84776C19.26 1.27761 17.976 0 16.398 0H2.862C1.284 0 0 1.27164 0 2.84179V12.5851C0 14.1552 1.284 15.4328 2.862 15.4328ZM27.444 8.82985C28.194 8.82985 28.8 9.43283 28.8 10.1791V18.597C28.8 19.3433 28.194 19.9463 27.444 19.9463H26.568C26.238 19.9463 25.968 20.2149 25.968 20.5433V21.9582L24.12 20.1194C24.006 20.006 23.856 19.9463 23.694 19.9463H15.756C15.006 19.9463 14.4 19.3433 14.4 18.597V15.4328H16.398C17.976 15.4328 19.26 14.1552 19.26 12.5851V8.82985H27.444ZM1.2 2.84179C1.2 1.92836 1.944 1.18806 2.862 1.18806H16.392C17.31 1.18806 18.054 1.92836 18.054 2.84179V12.5851C18.054 13.4985 17.31 14.2388 16.392 14.2388H7.2C7.038 14.2388 6.888 14.3045 6.774 14.4119L4.476 16.6985V14.8358C4.476 14.5075 4.206 14.2388 3.876 14.2388H2.856C1.944 14.2388 1.2 13.4985 1.2 12.5851V2.84179Z" fill="#3C3C3C" fill-opacity="0.933333"/>
</g>
<defs>
<clipPath id="clip0_949_6936">
<rect width="30" height="24" fill="white"/>
</clipPath>
</defs>
</svg>
