<svg width="24" height="24" viewBox="0 0 24 24" fill="none" xmlns="http://www.w3.org/2000/svg">
<path d="M22 12.75H8C7.80109 12.75 7.61032 12.671 7.46967 12.5303C7.32902 12.3897 7.25 12.1989 7.25 12C7.25 11.8011 7.32902 11.6103 7.46967 11.4697C7.61032 11.329 7.80109 11.25 8 11.25H22C22.1989 11.25 22.3897 11.329 22.5303 11.4697C22.671 11.6103 22.75 11.8011 22.75 12C22.75 12.1989 22.671 12.3897 22.5303 12.5303C22.3897 12.671 22.1989 12.75 22 12.75Z" fill="#F4F1E7"/>
<path d="M18 16.75C17.8517 16.7501 17.7067 16.7062 17.5833 16.6238C17.4599 16.5415 17.3637 16.4244 17.3069 16.2874C17.2501 16.1504 17.2351 15.9996 17.264 15.8541C17.2928 15.7086 17.3642 15.5749 17.469 15.47L20.93 12L17.469 8.53C17.3326 8.38836 17.2572 8.19879 17.2592 8.00214C17.2612 7.80549 17.3403 7.61748 17.4796 7.47862C17.6189 7.33975 17.8071 7.26114 18.0037 7.25972C18.2004 7.25829 18.3897 7.33417 18.531 7.471L22.521 11.471C22.6612 11.6118 22.7399 11.8023 22.7399 12.001C22.7399 12.1997 22.6612 12.3902 22.521 12.531L18.531 16.531C18.4613 16.6007 18.3785 16.6559 18.2874 16.6935C18.1962 16.7311 18.0986 16.7503 18 16.75ZM13 22.75H4C3.27082 22.7495 2.57165 22.4596 2.05604 21.944C1.54043 21.4283 1.25053 20.7292 1.25 20V5C1.25053 4.27082 1.54043 3.57165 2.05604 3.05604C2.57165 2.54043 3.27082 2.25053 4 2.25H13C13.7292 2.25053 14.4283 2.54043 14.944 3.05604C15.4596 3.57165 15.7495 4.27082 15.75 5V7C15.75 7.19891 15.671 7.38968 15.5303 7.53033C15.3897 7.67098 15.1989 7.75 15 7.75C14.8011 7.75 14.6103 7.67098 14.4697 7.53033C14.329 7.38968 14.25 7.19891 14.25 7V5C14.2495 4.66864 14.1176 4.35101 13.8833 4.1167C13.649 3.88239 13.3314 3.75053 13 3.75H4C3.66864 3.75053 3.35101 3.88239 3.1167 4.1167C2.88239 4.35101 2.75053 4.66864 2.75 5V20C2.75053 20.3314 2.88239 20.649 3.1167 20.8833C3.35101 21.1176 3.66864 21.2495 4 21.25H13C13.3314 21.2495 13.649 21.1176 13.8833 20.8833C14.1176 20.649 14.2495 20.3314 14.25 20V17C14.25 16.8011 14.329 16.6103 14.4697 16.4697C14.6103 16.329 14.8011 16.25 15 16.25C15.1989 16.25 15.3897 16.329 15.5303 16.4697C15.671 16.6103 15.75 16.8011 15.75 17V20C15.7495 20.7292 15.4596 21.4283 14.944 21.944C14.4283 22.4596 13.7292 22.7495 13 22.75Z" fill="#F4F1E7"/>
</svg>
