<svg width="13" height="12" viewBox="0 0 13 12" fill="none" xmlns="http://www.w3.org/2000/svg">
<path d="M6.67585 3C6.31993 3 5.972 3.10997 5.67606 3.31599C5.38012 3.52202 5.14947 3.81486 5.01326 4.15747C4.87706 4.50008 4.84142 4.87708 4.91086 5.24079C4.98029 5.60451 5.15169 5.9386 5.40336 6.20083C5.65504 6.46305 5.97569 6.64163 6.32477 6.71397C6.67385 6.78632 7.03569 6.74919 7.36451 6.60727C7.69334 6.46536 7.9744 6.22504 8.17214 5.91669C8.36987 5.60835 8.47542 5.24584 8.47542 4.875C8.47542 4.37772 8.28582 3.90081 7.94834 3.54917C7.61085 3.19754 7.15312 3 6.67585 3ZM6.67585 6C6.4623 6 6.25354 5.93402 6.07598 5.8104C5.89841 5.68679 5.76002 5.51109 5.6783 5.30552C5.59657 5.09995 5.57519 4.87375 5.61685 4.65552C5.65852 4.43729 5.76135 4.23684 5.91236 4.0795C6.06336 3.92217 6.25575 3.81502 6.4652 3.77162C6.67465 3.72821 6.89175 3.75049 7.08905 3.83564C7.28634 3.92078 7.45498 4.06498 7.57362 4.24998C7.69226 4.43499 7.75559 4.6525 7.75559 4.875C7.75559 5.17337 7.64183 5.45952 7.43934 5.6705C7.23685 5.88147 6.96221 6 6.67585 6ZM6.67585 0.75C5.62621 0.751241 4.6199 1.18624 3.87769 1.95955C3.13548 2.73287 2.71799 3.78136 2.7168 4.875C2.7168 6.34688 3.36959 7.90688 4.60634 9.38672C5.16206 10.0554 5.78752 10.6576 6.47115 11.182C6.53166 11.2262 6.60376 11.2499 6.67765 11.2499C6.75154 11.2499 6.82363 11.2262 6.88415 11.182C7.56652 10.6574 8.19076 10.0552 8.74535 9.38672C9.98031 7.90688 10.6349 6.34688 10.6349 4.875C10.6337 3.78136 10.2162 2.73287 9.47401 1.95955C8.7318 1.18624 7.72549 0.751241 6.67585 0.75ZM6.67585 10.4062C5.93218 9.79688 3.43662 7.55859 3.43662 4.875C3.43662 3.97989 3.7779 3.12145 4.38537 2.48851C4.99284 1.85558 5.81675 1.5 6.67585 1.5C7.53494 1.5 8.35885 1.85558 8.96633 2.48851C9.5738 3.12145 9.91507 3.97989 9.91507 4.875C9.91507 7.55766 7.41952 9.79688 6.67585 10.4062Z" fill="#F4F1E7"/>
</svg>
