<svg width="25" height="25" viewBox="0 0 25 25" fill="none" xmlns="http://www.w3.org/2000/svg">
<path d="M12.5 17.1875C13.7428 17.1862 14.9343 16.6919 15.8131 15.8131C16.6919 14.9343 17.1862 13.7428 17.1875 12.5V6.25C17.1875 5.0068 16.6936 3.81451 15.8146 2.93544C14.9355 2.05636 13.7432 1.5625 12.5 1.5625C11.2568 1.5625 10.0645 2.05636 9.18544 2.93544C8.30636 3.81451 7.8125 5.0068 7.8125 6.25V12.5C7.81379 13.7428 8.30807 14.9343 9.18686 15.8131C10.0657 16.6919 11.2572 17.1862 12.5 17.1875ZM9.375 6.25C9.375 5.4212 9.70424 4.62634 10.2903 4.04029C10.8763 3.45424 11.6712 3.125 12.5 3.125C13.3288 3.125 14.1237 3.45424 14.7097 4.04029C15.2958 4.62634 15.625 5.4212 15.625 6.25V12.5C15.625 13.3288 15.2958 14.1237 14.7097 14.7097C14.1237 15.2958 13.3288 15.625 12.5 15.625C11.6712 15.625 10.8763 15.2958 10.2903 14.7097C9.70424 14.1237 9.375 13.3288 9.375 12.5V6.25ZM13.2812 20.2734V23.4375C13.2812 23.6447 13.1989 23.8434 13.0524 23.9899C12.9059 24.1364 12.7072 24.2188 12.5 24.2188C12.2928 24.2188 12.0941 24.1364 11.9476 23.9899C11.8011 23.8434 11.7188 23.6447 11.7188 23.4375V20.2734C9.79262 20.0774 8.00758 19.1742 6.70883 17.7383C5.41008 16.3025 4.68988 14.4361 4.6875 12.5C4.6875 12.2928 4.76981 12.0941 4.91632 11.9476C5.06284 11.8011 5.26155 11.7188 5.46875 11.7188C5.67595 11.7188 5.87466 11.8011 6.02118 11.9476C6.16769 12.0941 6.25 12.2928 6.25 12.5C6.25 14.1576 6.90848 15.7473 8.08058 16.9194C9.25268 18.0915 10.8424 18.75 12.5 18.75C14.1576 18.75 15.7473 18.0915 16.9194 16.9194C18.0915 15.7473 18.75 14.1576 18.75 12.5C18.75 12.2928 18.8323 12.0941 18.9788 11.9476C19.1253 11.8011 19.324 11.7188 19.5312 11.7188C19.7385 11.7188 19.9372 11.8011 20.0837 11.9476C20.2302 12.0941 20.3125 12.2928 20.3125 12.5C20.3101 14.4361 19.5899 16.3025 18.2912 17.7383C16.9924 19.1742 15.2074 20.0774 13.2812 20.2734Z" fill="#707070"/>
</svg>
