<svg width="46" height="46" viewBox="0 0 46 46" fill="none" xmlns="http://www.w3.org/2000/svg">
<circle cx="23" cy="23" r="23" fill="#D7372B"/>
<path fill-rule="evenodd" clip-rule="evenodd" d="M19.6152 36.0358C19.6152 35.5026 20.0457 35.0703 20.5768 35.0703H24.4229C24.954 35.0703 25.3845 35.5026 25.3845 36.0358C25.3845 36.5691 24.954 37.0013 24.4229 37.0013H20.5768C20.0457 37.0013 19.6152 36.5691 19.6152 36.0358Z" fill="#F4F1E7"/>
<path fill-rule="evenodd" clip-rule="evenodd" d="M15.8709 13.6021C17.629 11.891 20.0136 10.9297 22.5 10.9297C24.9864 10.9297 27.371 11.891 29.1291 13.6021C30.8873 15.3132 31.875 17.634 31.875 20.0538V27.1504C31.875 27.6882 32.0945 28.204 32.4851 28.5842C32.8757 28.9643 33.4057 29.178 33.9583 29.178C34.5336 29.178 35 29.6319 35 30.1918C35 30.7517 34.5336 31.2055 33.9583 31.2055H11.0417C10.4664 31.2055 10 30.7517 10 30.1918C10 29.6319 10.4664 29.178 11.0417 29.178C11.5943 29.178 12.1242 28.9644 12.5148 28.5842C12.9055 28.204 13.125 27.6881 13.125 27.1504V20.0538C13.125 17.6339 14.1127 15.3132 15.8709 13.6021L15.8709 13.6021ZM14.6502 29.178H30.3498C29.9872 28.5667 29.7917 27.8683 29.7917 27.1504V20.0538C29.7917 18.1717 29.0235 16.3667 27.656 15.0358L28.3926 14.3189L27.656 15.0358C26.2885 13.7049 24.4339 12.9573 22.5 12.9573C20.5661 12.9573 18.7115 13.7049 17.344 15.0358C15.9766 16.3667 15.2083 18.1717 15.2083 20.0538V27.1504C15.2083 27.8683 15.0127 28.5667 14.6502 29.178Z" fill="#F4F1E7"/>
<ellipse cx="30.1925" cy="13.8276" rx="4.80769" ry="4.82759" fill="#F4F1E7"/>
</svg>
