<svg width="38" height="38" viewBox="0 0 38 38" fill="none" xmlns="http://www.w3.org/2000/svg">
<circle cx="19" cy="19" r="19" fill="white"/>
<g clip-path="url(#clip0_324_11597)">
<path d="M26.9428 12.5223C26.8708 12.4799 26.7894 12.4562 26.7059 12.4534C26.6224 12.4506 26.5395 12.4688 26.4649 12.5063C26.3903 12.5439 26.3264 12.5995 26.2788 12.6682C26.2313 12.7368 26.2018 12.8163 26.1928 12.8993C26.1748 13.0633 26.1469 13.2273 26.1118 13.3993C25.1329 17.8423 23.1668 20.0033 20.0998 20.0033H15.5998C15.4847 20.0035 15.3732 20.0434 15.2842 20.1163C15.1951 20.1891 15.1339 20.2905 15.1108 20.4033L13.6108 27.4343L13.3429 29.2243C13.1888 30.0383 13.7237 30.8231 14.5376 30.9771C14.6274 30.9941 14.7185 31.0029 14.8099 31.0033H17.8198C18.5097 31.0054 19.1112 30.5345 19.2748 29.8643L20.4908 25.0033H23.0998C26.1788 25.0033 28.3069 22.5483 29.0918 18.0903C29.61 15.9675 28.7527 13.7465 26.9428 12.5223Z" fill="#03A9F4"/>
<path d="M25.9996 8.78204C25.5111 8.22787 24.9113 7.78279 24.2394 7.47576C23.5675 7.16874 22.8384 7.00665 22.0997 7.00004H13.8197C12.5805 6.99338 11.5255 7.89999 11.3457 9.126L8.77468 26.277C8.65154 27.0962 9.21578 27.8602 10.035 27.9833C10.1094 27.9945 10.1845 28.0001 10.2597 28H14.0997C14.2148 27.9998 14.3263 27.9599 14.4154 27.8871C14.5044 27.8142 14.5657 27.7128 14.5887 27.6L16.0037 21.0001H20.1037C23.6617 21.0001 26.0127 18.513 27.0927 13.6C27.1361 13.4042 27.1695 13.2063 27.1927 13.007C27.3165 12.2584 27.2738 11.4917 27.0676 10.7614C26.8614 10.0312 26.4968 9.35533 25.9996 8.78204Z" fill="#283593"/>
</g>
<defs>
<clipPath id="clip0_324_11597">
<rect width="24" height="24" fill="white" transform="translate(7 7)"/>
</clipPath>
</defs>
</svg>
