<svg width="20" height="21" viewBox="0 0 20 21" fill="none" xmlns="http://www.w3.org/2000/svg">
<g clip-path="url(#clip0_364_7877)">
<path fill-rule="evenodd" clip-rule="evenodd" d="M5.16425 2.48987C4.91793 2.2414 4.51524 2.2414 4.26892 2.48987L1.6793 5.07949C1.54221 5.21657 1.48009 5.40078 1.49509 5.5807V5.60855C1.6643 9.30984 3.0223 12.4585 5.3249 14.7418C7.62535 17.0187 10.7933 18.3574 14.4646 18.5781H14.4882C14.6724 18.5973 14.8566 18.5352 14.9958 18.3981L17.5854 15.8085C17.8339 15.5622 17.8339 15.1595 17.5854 14.9132L15.3599 12.6877C15.1115 12.4414 14.7109 12.4414 14.4646 12.6877L12.3612 14.7911C12.0463 15.106 11.5687 15.2238 11.1339 15.0631C9.65164 14.5191 8.38146 13.7116 7.35333 12.6941C6.33376 11.6853 5.5241 10.4387 4.98433 8.97784C4.81726 8.52375 4.95434 8.03538 5.27992 7.7248C5.764 7.26428 6.1367 6.88301 6.5501 6.45891C6.80285 6.19973 7.07059 5.92556 7.3876 5.60855C7.63392 5.36008 7.63392 4.95954 7.3876 4.71321L5.16211 2.48773L5.16425 2.48987ZM3.20865 1.4296C4.04187 0.596383 5.3913 0.596383 6.22452 1.4296L8.45001 3.65509C9.28323 4.48831 9.28323 5.83774 8.45001 6.67096C8.16513 6.95584 7.90809 7.2193 7.65748 7.47633C7.27193 7.87045 6.90352 8.24958 6.47298 8.66512C6.93565 9.83462 7.59751 10.8263 8.41145 11.6317C9.23396 12.4457 10.2514 13.1118 11.4552 13.583L13.4086 11.6296C14.2418 10.7964 15.5913 10.7964 16.4245 11.6296L18.65 13.8551C19.4832 14.6883 19.4832 16.0377 18.65 16.8709L16.0604 19.4606C15.5977 19.9254 14.9722 20.1288 14.3682 20.0774C10.3885 19.8354 6.86282 18.3746 4.27534 15.8085C1.67715 13.2339 0.188497 9.7211 0.00214734 5.68994C-0.0428337 5.09234 0.162794 4.4776 0.621171 4.01922L3.20865 1.4296Z" fill="#D7372B"/>
</g>
<defs>
<clipPath id="clip0_364_7877">
<rect width="19.2776" height="19.2776" fill="white" transform="translate(-0.00390625 0.804688)"/>
</clipPath>
</defs>
</svg>
