<svg width="32" height="32" viewBox="0 0 32 32" fill="none" xmlns="http://www.w3.org/2000/svg">
<g clip-path="url(#clip0_311_14498)">
<mask id="mask0_311_14498" style="mask-type:luminance" maskUnits="userSpaceOnUse" x="0" y="0" width="32" height="32">
<path d="M32 0H0V32H32V0Z" fill="white"/>
</mask>
<g mask="url(#mask0_311_14498)">
<path d="M31.9994 16C31.9994 7.16665 24.8327 0 15.9994 0C14.1327 0 12.3327 0.333333 10.666 0.9V31.0667C12.3327 31.6667 14.1327 32 15.9994 32C24.8327 32 31.9994 24.8334 31.9994 16Z" fill="#F0263C"/>
<path d="M0 15.9984C0 22.9651 4.46666 28.8985 10.6666 31.0985V0.898438C4.46666 3.09844 0 9.03176 0 15.9984Z" fill="#005B13"/>
<path d="M8.5332 17.4688C8.56655 17.5021 8.59985 17.5687 8.6332 17.602C8.59985 17.5354 8.56655 17.5021 8.5332 17.4688Z" fill="#FFD400"/>
<path d="M12.6992 17.602C12.7326 17.5687 12.7659 17.5021 12.7992 17.4688C12.7659 17.5021 12.7326 17.5354 12.6992 17.602Z" fill="#FFD400"/>
<path d="M10.666 9.33594C7.36601 9.33594 4.66602 12.0359 4.66602 15.3359C4.66602 18.6359 7.36601 21.3359 10.666 21.3359C13.966 21.3359 16.666 18.6359 16.666 15.3359C16.666 12.0359 13.966 9.33594 10.666 9.33594ZM15.266 16.0026L14.6327 16.3359C14.5994 16.6359 14.5327 16.9026 14.4327 17.2026L15.8994 16.4692C15.766 17.0692 15.5327 17.6359 15.2327 18.1359L14.3994 17.3026C14.3327 17.5359 14.2327 17.7359 14.0994 17.9359L14.6327 18.4692L13.6327 18.6026C13.366 18.9359 13.066 19.2026 12.7327 19.4026L14.4327 19.1692C13.4994 20.0026 12.3327 20.5692 10.9994 20.6359V19.9692C10.8994 19.9692 10.766 20.0026 10.666 20.0026C10.566 20.0026 10.4327 20.0026 10.3327 19.9692V20.6359C8.99936 20.5692 7.83266 20.0026 6.93266 19.1359L8.63266 19.3692C8.29936 19.1359 7.99936 18.8692 7.73266 18.5692L6.73266 18.4359L7.26601 17.9026C7.16601 17.7026 7.06601 17.4692 6.96601 17.2692L6.13266 18.1026C5.83266 17.6026 5.59936 17.0359 5.46601 16.4359L6.93266 17.1692C6.83266 16.9026 6.76601 16.6026 6.73266 16.3026L6.09936 15.9692L6.69936 15.6692C6.69936 15.6359 6.69936 15.6359 6.69936 15.6026V15.3359V14.9692L5.36601 15.6359C5.36601 15.5359 5.36601 15.4359 5.36601 15.3359C5.36601 14.8359 5.43266 14.3359 5.56601 13.8692L6.69936 14.6359V13.8359L6.13266 13.4359L6.69936 13.2359V12.6692V12.5359L6.03266 12.7692C6.23266 12.4359 6.43266 12.1026 6.69936 11.8359V11.3359H7.19936C8.06601 10.5692 9.16601 10.1026 10.366 10.0359V11.3359H10.6994H11.0327V10.0359C12.2327 10.1026 13.366 10.6026 14.1994 11.3359H14.666V11.8026C14.9327 12.1026 15.1327 12.4026 15.3327 12.7359L14.666 12.5026V12.6692V13.2359L15.2327 13.4359L14.666 13.8359V14.6359L15.7994 13.8692C15.9327 14.3359 15.9994 14.8359 15.9994 15.3359C15.9994 15.4359 15.9994 15.5359 15.9994 15.6359L14.666 14.9692V15.3359V15.6359C14.666 15.6692 14.666 15.6692 14.666 15.7026L15.266 16.0026Z" fill="#FFD400"/>
<path d="M13.3 15.9974H12V14.6641H13.3334V12.6641H11.3334V13.9974H10V12.6641H8V14.6641H9.33335V15.9974H8.03335C8.03335 16.0974 8.06665 16.2307 8.1 16.3307V16.3641C8.2 16.7641 8.33335 17.1307 8.56665 17.4307C8.6 17.4641 8.63335 17.5307 8.66665 17.5641C8.83335 17.7974 9 17.9641 9.23335 18.1307C9.36665 18.2307 9.5 18.2974 9.63335 18.3641C9.73335 18.4307 9.86665 18.4641 9.96665 18.4974C10.1 18.5307 10.2333 18.5641 10.3666 18.5974C10.4666 18.5974 10.5666 18.6307 10.7 18.6307C10.9333 18.6307 11.1334 18.5974 11.3334 18.5307C11.5334 18.4641 11.7333 18.3974 11.9 18.2974C12 18.2307 12.0666 18.1974 12.1666 18.1307C12.3666 17.9641 12.5666 17.7641 12.7333 17.5641C12.7666 17.5307 12.8 17.4641 12.8334 17.4307C13.0333 17.0974 13.2 16.7641 13.3 16.3641V16.3307C13.2667 16.2307 13.3 16.0974 13.3 15.9974ZM10 14.6641H11.3334V15.9974H10V14.6641ZM11.3334 17.9974H10V16.6641H11.3334V17.9974Z" fill="white"/>
<path d="M8.66665 12.0026L8 12.6693H10H10.6666L10 12.0026L10.6666 11.3359H10.3334H8L8.66665 12.0026Z" fill="#F0263C"/>
<path d="M13.9987 12.0026L13.332 12.6693V14.6693V15.3359L13.9987 14.6693L14.6654 15.3359V14.9693V14.6359V13.8359V13.2359V12.6693V12.5359V11.8026V11.3359H14.1654H13.332L13.9987 12.0026Z" fill="#F0263C"/>
<path d="M11.3327 12.0026L10.666 12.6693H11.3327H13.3327L12.666 12.0026L13.3327 11.3359H10.9994H10.666L11.3327 12.0026Z" fill="#F0263C"/>
<path d="M7.99937 15.3359V14.6693V12.6693L7.33267 12.0026L7.99937 11.3359H7.16602H6.66602V11.8026V12.5359V12.6693V13.2359V13.8359V14.6359V14.9693V15.3359L7.33267 14.6693L7.99937 15.3359Z" fill="#F0263C"/>
<path d="M14.666 15.3359L13.9994 16.0026L13.3327 15.3359V15.6359V16.0026H13.2994C13.2994 16.1026 13.266 16.2359 13.2327 16.3359V16.3693C13.1327 16.7693 12.9994 17.1359 12.766 17.4359C12.7327 17.4693 12.6994 17.5359 12.666 17.5693C12.4994 17.8026 12.3327 17.9693 12.0994 18.1359C11.9994 18.2026 11.9327 18.2693 11.8327 18.3026C11.666 18.4026 11.466 18.5026 11.266 18.5359C11.0994 18.6359 10.8994 18.6693 10.666 18.6693C10.566 18.6693 10.466 18.6693 10.3327 18.6359C10.1994 18.6026 10.066 18.5693 9.93267 18.5359C9.83267 18.5026 9.69937 18.4359 9.59937 18.4026C9.46602 18.3359 9.33267 18.2359 9.19937 18.1693C8.99937 18.0026 8.79937 17.8026 8.63267 17.6026C8.59937 17.5693 8.56602 17.5026 8.53267 17.4693C8.33267 17.1359 8.16602 16.8026 8.06602 16.4026V16.3693C8.03267 16.2693 8.03267 16.1359 7.99937 16.0359V15.6693V15.3359L7.33267 16.0026L6.66602 15.3359V15.6359C6.66602 15.6693 6.66602 15.6693 6.66602 15.7026C6.66602 15.9026 6.69937 16.1026 6.69937 16.3026C6.73267 16.6026 6.79937 16.8693 6.89937 17.1693C6.89937 17.2026 6.89937 17.2359 6.93267 17.2359C6.99937 17.4693 7.09937 17.6693 7.23267 17.8693C7.29937 17.9693 7.36602 18.0693 7.43267 18.1693C7.53267 18.3026 7.63267 18.4359 7.73267 18.5359C7.99937 18.8693 8.29937 19.1359 8.63267 19.3359C9.13267 19.6693 9.73267 19.8693 10.3327 19.9359C10.4327 19.9359 10.566 19.9693 10.666 19.9693C10.766 19.9693 10.8994 19.9693 10.9994 19.9359C11.5994 19.8693 12.1994 19.6693 12.6994 19.3359C13.0327 19.1026 13.3327 18.8359 13.5994 18.5359C13.6994 18.4026 13.7994 18.3026 13.8994 18.1693C13.966 18.0693 14.0327 17.9693 14.0994 17.8693C14.1994 17.6693 14.2994 17.4359 14.3994 17.2359C14.3994 17.2026 14.4327 17.1693 14.4327 17.1693C14.5327 16.9026 14.5994 16.6026 14.6327 16.3026C14.666 16.1026 14.666 15.9026 14.666 15.7026C14.666 15.6693 14.666 15.6693 14.666 15.6359V15.3359ZM8.66602 19.0026L9.33267 18.3359L9.99937 19.0026L9.33267 19.6693L8.66602 19.0026ZM12.666 19.0026L11.9994 19.6693L11.3327 19.0026L11.9994 18.3359L12.666 19.0026Z" fill="#F0263C"/>
<path d="M11.3334 13.9974V12.6641H10.6666H10V13.9974H11.3334Z" fill="#231D9A"/>
<path d="M11.3334 14.6641H10V15.9974H11.3334V14.6641Z" fill="#231D9A"/>
<path d="M9.33335 15.9974V14.6641H8V15.3307V15.6307V15.9974H8.03335H9.33335Z" fill="#231D9A"/>
<path d="M13.3334 14.6641H12V15.9974H13.3H13.3334V15.6307V15.3307V14.6641Z" fill="#231D9A"/>
<path d="M11.3334 16.6641H10V17.9974H11.3334V16.6641Z" fill="#231D9A"/>
<path d="M10.6658 11.3438L10.0059 12.0037L10.6658 12.6637L11.3258 12.0037L10.6658 11.3438Z" fill="#FFD400"/>
<path d="M7.99979 11.3438L7.33984 12.0037L7.99979 12.6636L8.65974 12.0037L7.99979 11.3438Z" fill="#FFD400"/>
<path d="M7.33182 14.6719L6.67188 15.3318L7.33182 15.9918L7.99178 15.3318L7.33182 14.6719Z" fill="#FFD400"/>
<path d="M9.33183 18.3438L8.67188 19.0037L9.33183 19.6637L9.99178 19.0037L9.33183 18.3438Z" fill="#FFD400"/>
<path d="M11.9998 18.3438L11.3398 19.0037L11.9998 19.6637L12.6597 19.0037L11.9998 18.3438Z" fill="#FFD400"/>
<path d="M13.9998 14.6719L13.3398 15.3318L13.9998 15.9918L14.6597 15.3318L13.9998 14.6719Z" fill="#FFD400"/>
<path d="M13.3318 11.3438L12.6719 12.0037L13.3318 12.6637L13.9918 12.0037L13.3318 11.3438Z" fill="#FFD400"/>
</g>
</g>
<defs>
<clipPath id="clip0_311_14498">
<rect width="32" height="32" fill="white"/>
</clipPath>
</defs>
</svg>
