<svg width="36" height="36" viewBox="0 0 36 36" fill="none" xmlns="http://www.w3.org/2000/svg">
<path fill-rule="evenodd" clip-rule="evenodd" d="M14.5301 1.24145C15.3044 0.475563 16.3735 0 17.5566 0C18.9267 0 20.1505 0.639817 20.9329 1.62696C22.0571 1.031 23.438 0.932735 24.694 1.48405C25.7838 1.95743 26.5696 2.82442 26.9616 3.8386C28.0487 3.84348 29.1417 4.24792 29.9774 5.07452C30.946 6.02544 31.3548 7.32197 31.2024 8.56573C32.422 8.92835 33.4648 9.82359 33.9619 11.0887C34.3958 12.1865 34.3236 13.3546 33.8742 14.3445C34.5913 15.0529 35.0535 16.0071 35.1186 17.0698L36 17.9402H35.0674C34.9081 19.0404 34.3198 20.0011 33.4798 20.6561C34.0811 21.7649 34.1792 23.1247 33.6225 24.3646L33.6219 24.3659C33.1381 25.4367 32.2524 26.2177 31.2186 26.6032C31.2194 27.6861 30.8018 28.7708 29.9681 29.5961L29.9668 29.5974C29.002 30.5468 27.6921 30.9437 26.4397 30.8004C26.0674 31.9948 25.166 33.0232 23.8844 33.5078C22.7781 33.9294 21.5953 33.8658 20.5898 33.4178C19.8157 34.1859 18.7409 34.6667 17.554 34.6667C16.1877 34.6667 14.973 34.0375 14.19 33.055C13.0714 33.6359 11.703 33.7233 10.4591 33.1801C9.36986 32.7069 8.5853 31.8373 8.19303 30.8247C7.09059 30.8294 5.98401 30.4213 5.14054 29.589C4.17046 28.6318 3.76655 27.3323 3.92184 26.0876C2.71839 25.7189 1.68601 24.8305 1.19611 23.5746C0.76848 22.4875 0.831061 21.3305 1.27349 20.3426C0.486851 19.5765 0 18.5145 0 17.3346C0 15.9801 0.643344 14.7716 1.65098 13.9992C1.05993 12.8947 0.972893 11.5433 1.52207 10.3136L1.52257 10.3125C2.00142 9.24604 2.87163 8.4745 3.89178 8.08423C3.88864 7.00043 4.3022 5.91279 5.1425 5.08098L5.14319 5.08029C6.11673 4.11964 7.44269 3.71984 8.70507 3.87549C9.07642 2.67808 9.98202 1.65278 11.2587 1.16485C12.3588 0.742414 13.5286 0.802196 14.5301 1.24145ZM33.878 17.0194C33.7921 16.187 33.3636 15.4572 32.7255 14.9617L32.2986 14.6302L32.5783 14.1706C33.0476 13.3996 33.1686 12.4283 32.8133 11.53L32.8127 11.5287C32.3983 10.4737 31.4539 9.78028 30.3959 9.63238L29.6998 9.53507L29.8887 8.86677C30.1755 7.85239 29.9123 6.72607 29.1077 5.93638L29.1058 5.93452C28.4209 5.25659 27.4883 4.97395 26.5874 5.07467L26.0511 5.13463L25.9201 4.61787C25.6993 3.74631 25.0916 2.98538 24.1964 2.5969L24.1939 2.5958C23.1525 2.13836 21.9854 2.30778 21.1256 2.94468L20.5624 3.36183L20.218 2.75567C19.6976 1.83964 18.6964 1.21637 17.5566 1.21637C16.5847 1.21637 15.7194 1.66674 15.1578 2.3736L14.8227 2.79534L14.3566 2.5204C13.578 2.06117 12.6089 1.95148 11.7053 2.29858L11.7042 2.29899C10.6403 2.70545 9.93677 3.6354 9.78232 4.67607L9.68046 5.36243L9.00424 5.17301C7.97908 4.88585 6.82518 5.14095 6.01505 5.94012C5.3241 6.62433 5.03674 7.55157 5.14733 8.44423L5.21304 8.97456L4.68858 9.10719C3.80877 9.32969 3.04375 9.9276 2.6497 10.8048C2.19114 11.8322 2.35446 12.9751 2.98622 13.8157L3.40459 14.3724L2.79092 14.7094C1.8577 15.222 1.2326 16.2056 1.2326 17.3346C1.2326 18.3064 1.69386 19.1641 2.41834 19.7177L2.84945 20.0471L2.57067 20.5096C2.10683 21.2789 1.99358 22.2411 2.3454 23.135L2.34612 23.1369C2.75292 24.1806 3.68762 24.8705 4.73406 25.0273L5.42218 25.1305L5.23515 25.7921C4.94797 26.8078 5.20712 27.9345 6.01209 28.7288C6.70457 29.4122 7.64864 29.6964 8.55906 29.5849L9.10051 29.5186L9.23285 30.041C9.45401 30.9139 10.0627 31.6792 10.9566 32.0672L10.9579 32.0677C11.9931 32.5198 13.1495 32.3596 14.0028 31.7396L14.5614 31.3336L14.9041 31.9289C15.429 32.8407 16.4175 33.4503 17.554 33.4503C18.5303 33.4503 19.403 32.9929 19.9621 32.2842L20.2997 31.8564L20.769 32.1384C21.5462 32.6055 22.5298 32.7203 23.4411 32.3728L23.4429 32.3721C24.5035 31.9712 25.2038 31.0428 25.3631 30.0034L25.4664 29.3296L26.1331 29.5072C27.1573 29.7801 28.296 29.5235 29.0961 28.7364C29.7823 28.0566 30.0737 27.1291 29.9633 26.2381L29.8968 25.7015L30.4291 25.5734C31.3151 25.3603 32.0972 24.7534 32.496 23.8708C32.9573 22.8422 32.7873 21.6952 32.1465 20.847L31.7302 20.2959L32.3351 19.9552C33.2559 19.4366 33.878 18.4602 33.878 17.3373V17.0194Z" fill="#D7372B"/>
<path d="M13.8526 25.3281L8 18.0273L11.4035 15.4591L14.1747 18.9159L23.5362 9.32812L26.6667 12.2057L13.8526 25.3281Z" fill="#D7372B"/>
<path d="M35.9972 17.9958C35.9972 16.7528 35.4178 15.6503 34.5066 14.9332C35.1028 13.9405 35.2603 12.6834 34.8047 11.5163C34.2759 10.1523 33.0694 9.25521 31.7194 9.06398C32.085 7.75346 31.7503 6.29388 30.7209 5.27021C29.8434 4.38997 28.6509 4.02719 27.5091 4.15655C27.2278 3.03164 26.4516 2.04453 25.3069 1.54113C23.9738 0.947739 22.4831 1.16991 21.3891 1.99109C20.7253 0.807124 19.4484 0 17.9916 0C16.7484 0 15.6431 0.584954 14.9288 1.49613C13.9359 0.902742 12.6956 0.759316 11.5397 1.20928C10.1813 1.73518 9.28406 2.93883 9.08719 4.2831C7.77938 3.91188 6.30563 4.24092 5.27063 5.27584C4.3875 6.16171 4.02188 7.36255 4.1625 8.51277C3.04313 8.79963 2.06438 9.573 1.56094 10.7092C0.975938 12.0366 1.18406 13.5158 1.99125 14.6042C0.79875 15.2679 0 16.5418 0 18.0014C0 19.2585 0.590625 20.3693 1.51313 21.0837C0.9225 22.0764 0.77625 23.3222 1.22625 24.4809C1.74656 25.8336 2.94187 26.7251 4.275 26.9276C3.90938 28.2381 4.23844 29.6977 5.26781 30.727C6.15375 31.6128 7.36031 31.9784 8.51625 31.835C8.7975 32.9599 9.57375 33.9527 10.7184 34.4561C12.0403 35.041 13.5169 34.8329 14.6053 34.0314C15.2747 35.2098 16.5375 36 17.9888 36C19.2375 36 20.3513 35.4066 21.0628 34.4926C22.0556 35.0973 23.3128 35.2463 24.4772 34.7963C25.8356 34.2761 26.7272 33.0724 26.9297 31.7338C28.2319 32.0853 29.6859 31.7563 30.7097 30.7354C31.5872 29.8552 31.9584 28.6543 31.8178 27.5041C32.9484 27.2285 33.9469 26.4439 34.4559 25.3021C35.0466 23.9691 34.8272 22.4842 34.0116 21.3902C35.1844 20.7209 35.9803 19.4582 35.9803 18.0042L35.9916 17.9986H36L35.9972 17.9958Z" fill="#D7372B"/>
<path d="M14.3354 26.0984L8.55078 18.7064L11.9148 16.1061L14.6538 19.6061L23.9066 9.89844L27.0008 12.812L14.3354 26.0984Z" fill="#F4F1E7"/>
</svg>
