<svg width="28" height="24" viewBox="0 0 28 24" fill="none" xmlns="http://www.w3.org/2000/svg">
<path d="M12.7715 2.75956C13.7958 1.6744 15.2301 1 16.8178 1C19.9303 1 22.4535 3.59204 22.4535 6.78947C22.4535 9.98691 19.2655 12.5789 16.1529 12.5789C21.4956 12.5789 26.5 16.2032 26.5 20.6842M11.182 14.8947C14.2946 14.8947 16.8178 12.3027 16.8178 9.10526C16.8178 5.90783 14.2946 3.31579 11.182 3.31579C8.0695 3.31579 5.54629 5.90783 5.54629 9.10526C5.54629 12.3027 8.0695 14.8947 11.182 14.8947ZM11.182 14.8947C16.5247 14.8947 20.8644 18.5189 20.8644 23M11.182 14.8947C5.83935 14.8947 1.5 18.5189 1.5 23" stroke="#3C3C3C" stroke-opacity="0.933333" stroke-width="1.5" stroke-linecap="round" stroke-linejoin="round"/>
</svg>
