<svg width="27" height="23" viewBox="0 0 27 23" fill="none" xmlns="http://www.w3.org/2000/svg">
<path fill-rule="evenodd" clip-rule="evenodd" d="M16.6037 0.171875C15.1761 0.171875 13.8726 0.730505 12.9043 1.63673C15.4988 2.64226 17.3485 5.1623 17.3485 8.11684C17.3485 9.18444 17.1002 10.19 16.6782 11.0838C19.6575 11.0465 22.0658 8.62581 22.0658 5.63404C22.0658 2.64226 19.6203 0.171875 16.6037 0.171875Z" fill="#D7372B"/>
<path fill-rule="evenodd" clip-rule="evenodd" d="M19.8071 20.5293C19.4844 19.7596 19.025 19.052 18.454 18.3941C18.4292 18.3692 18.4043 18.3444 18.3919 18.3196C17.8333 17.6989 17.1505 17.1527 16.3933 16.6809C16.3436 16.6437 16.294 16.6189 16.2443 16.5816C15.8719 16.3582 15.4746 16.1595 15.065 15.9857C15.0153 15.9609 14.9657 15.9485 14.9036 15.9237C14.5187 15.7623 14.1215 15.6257 13.7118 15.514C13.6498 15.5016 13.5877 15.4768 13.5256 15.4643C13.0911 15.3526 12.6318 15.2657 12.1725 15.1912C12.0732 15.1788 11.9739 15.1664 11.8746 15.154C11.3904 15.0919 10.9063 15.0547 10.3973 15.0547C4.77376 15.0547 0.478516 18.7416 0.478516 22.9996H20.3161C20.3161 22.1431 20.1299 21.2989 19.8071 20.5168V20.5293Z" fill="#D7372B"/>
<path fill-rule="evenodd" clip-rule="evenodd" d="M20.614 20.5231H26.523C26.523 16.2651 22.2278 12.5781 16.6042 12.5781C16.2939 12.5781 15.9835 12.5905 15.6732 12.6154C14.9408 13.4719 13.9973 14.1547 12.9297 14.5768C16.6042 15.3092 19.5463 17.581 20.614 20.5231Z" fill="#D7372B"/>
<path d="M16.1334 10.4849C17.4453 7.31777 15.9413 3.68687 12.7742 2.37502C9.60713 1.06317 5.97623 2.56714 4.66438 5.73423C3.35253 8.90132 4.85649 12.5322 8.02358 13.8441C11.1907 15.1559 14.8216 13.652 16.1334 10.4849Z" fill="#D7372B"/>
</svg>
