<svg width="26" height="10" viewBox="0 0 26 10" fill="none" xmlns="http://www.w3.org/2000/svg">
<path fill-rule="evenodd" clip-rule="evenodd" d="M12.3737 0.168948C12.4413 0.228133 12.4965 0.300167 12.536 0.380862C12.5755 0.461557 12.5986 0.549303 12.6039 0.638996C12.6092 0.728689 12.5966 0.818541 12.5668 0.903327C12.5371 0.988113 12.4908 1.06614 12.4306 1.13287L5.30356 9.04289C5.2431 9.10988 5.16989 9.16413 5.08819 9.20245C5.0065 9.24077 4.91798 9.26239 4.82783 9.26605C4.73767 9.26971 4.64769 9.25534 4.56316 9.22377C4.47863 9.1922 4.40125 9.14407 4.33556 9.08221L0.211425 5.20007C0.0877002 5.08194 0.0127881 4.92169 0.00149226 4.751C-0.00980361 4.5803 0.0433385 4.41158 0.150417 4.27817C0.208216 4.20585 0.28011 4.14602 0.361735 4.10233C0.44336 4.05863 0.533013 4.03198 0.625252 4.024C0.717491 4.01601 0.810391 4.02685 0.898312 4.05586C0.986233 4.08487 1.06734 4.13145 1.13671 4.19276L4.33624 7.07098C4.46983 7.19122 4.64571 7.25348 4.8252 7.24408C5.00469 7.23467 5.1731 7.15436 5.29339 7.02082L11.4233 0.223855C11.5427 0.0915607 11.7093 0.0115597 11.8871 0.00115748C12.065 -0.00924475 12.2398 0.0507879 12.3737 0.16827V0.168948Z" fill="#707070"/>
<path fill-rule="evenodd" clip-rule="evenodd" d="M25.3737 0.168948C25.4413 0.228133 25.4965 0.300167 25.536 0.380862C25.5755 0.461557 25.5986 0.549303 25.6039 0.638996C25.6092 0.728689 25.5966 0.818541 25.5668 0.903327C25.5371 0.988113 25.4908 1.06614 25.4306 1.13287L18.3036 9.04289C18.2431 9.10988 18.1699 9.16413 18.0882 9.20245C18.0065 9.24077 17.918 9.26239 17.8278 9.26605C17.7377 9.26971 17.6477 9.25534 17.5632 9.22377C17.4786 9.1922 17.4012 9.14407 17.3356 9.08221L13.2114 5.20007C13.0877 5.08194 13.0128 4.92169 13.0015 4.751C12.9902 4.5803 13.0433 4.41158 13.1504 4.27817C13.2082 4.20585 13.2801 4.14602 13.3617 4.10233C13.4434 4.05863 13.533 4.03198 13.6253 4.024C13.7175 4.01601 13.8104 4.02685 13.8983 4.05586C13.9862 4.08487 14.0673 4.13145 14.1367 4.19276L17.3362 7.07098C17.4698 7.19122 17.6457 7.25348 17.8252 7.24408C18.0047 7.23467 18.1731 7.15436 18.2934 7.02082L24.4233 0.223855C24.5427 0.0915607 24.7093 0.0115597 24.8871 0.00115748C25.065 -0.00924475 25.2398 0.0507879 25.3737 0.16827V0.168948Z" fill="#707070"/>
</svg>
