<svg width="28" height="28" viewBox="0 0 28 28" fill="none" xmlns="http://www.w3.org/2000/svg">
<circle cx="14" cy="14" r="14" fill="#3C3C3C" fill-opacity="0.933333"/>
<path fill-rule="evenodd" clip-rule="evenodd" d="M14.3093 19.9635C17.4342 19.9635 19.9674 17.4302 19.9674 14.3054C19.9674 11.1805 17.4342 8.64731 14.3093 8.64731C11.1844 8.64731 8.65121 11.1805 8.65121 14.3054C8.65121 17.4302 11.1844 19.9635 14.3093 19.9635ZM14.3093 21.1498C18.0894 21.1498 21.1537 18.0855 21.1537 14.3054C21.1537 10.5253 18.0894 7.46094 14.3093 7.46094C10.5292 7.46094 7.46484 10.5253 7.46484 14.3054C7.46484 18.0855 10.5292 21.1498 14.3093 21.1498Z" fill="#F4F1E7"/>
<path d="M16.1747 14.3042C16.1747 15.3351 15.339 16.1708 14.3081 16.1708C13.2771 16.1708 12.4414 15.3351 12.4414 14.3042C12.4414 13.2732 13.2771 12.4375 14.3081 12.4375C15.339 12.4375 16.1747 13.2732 16.1747 14.3042Z" fill="#F4F1E7"/>
</svg>
