<svg width="18" height="19" viewBox="0 0 18 19" fill="none" xmlns="http://www.w3.org/2000/svg">
<path d="M17.786 17.043L13.757 13.014C14.829 11.686 15.429 10.014 15.429 8.214C15.429 3.971 11.957 0.5 7.714 0.5C3.471 0.5 0 3.971 0 8.214C0 12.457 3.471 15.929 7.714 15.929C9.514 15.929 11.186 15.286 12.514 14.257L16.543 18.286L17.786 17.043ZM7.757 14.214C4.457 14.214 1.757 11.514 1.757 8.214C1.757 4.914 4.457 2.214 7.757 2.214C11.057 2.214 13.757 4.914 13.757 8.214C13.757 11.514 11.057 14.214 7.757 14.214Z" fill="#3C3C3C" fill-opacity="0.933333"/>
</svg>
