<svg width="20" height="20" viewBox="0 0 20 20" fill="none" xmlns="http://www.w3.org/2000/svg">
<path d="M19.5299 18.4745L14.8358 13.7813C16.1963 12.1479 16.8748 10.0529 16.73 7.93204C16.5852 5.81117 15.6283 3.82777 14.0584 2.39445C12.4885 0.961116 10.4264 0.18821 8.30115 0.23651C6.1759 0.28481 4.15108 1.1506 2.64791 2.65377C1.14474 4.15694 0.27895 6.18176 0.23065 8.30701C0.18235 10.4323 0.955257 12.4943 2.38859 14.0642C3.82191 15.6341 5.80531 16.591 7.92618 16.7358C10.047 16.8806 12.1421 16.2022 13.7755 14.8417L18.4686 19.5357C18.5383 19.6054 18.621 19.6607 18.7121 19.6984C18.8031 19.7361 18.9007 19.7555 18.9992 19.7555C19.0978 19.7555 19.1954 19.7361 19.2864 19.6984C19.3775 19.6607 19.4602 19.6054 19.5299 19.5357C19.5995 19.466 19.6548 19.3833 19.6925 19.2923C19.7302 19.2012 19.7497 19.1036 19.7497 19.0051C19.7497 18.9066 19.7302 18.809 19.6925 18.7179C19.6548 18.6269 19.5995 18.5442 19.5299 18.4745ZM1.74924 8.5051C1.74924 7.17007 2.14512 5.86503 2.88682 4.755C3.62852 3.64497 4.68272 2.7798 5.91612 2.26891C7.14953 1.75802 8.50673 1.62435 9.8161 1.8848C11.1255 2.14525 12.3282 2.78812 13.2722 3.73213C14.2162 4.67613 14.8591 5.87887 15.1195 7.18824C15.38 8.49761 15.2463 9.85481 14.7354 11.0882C14.2245 12.3216 13.3594 13.3758 12.2493 14.1175C11.1393 14.8592 9.83426 15.2551 8.49924 15.2551C6.70964 15.2531 4.9939 14.5413 3.72846 13.2759C2.46302 12.0104 1.75122 10.2947 1.74924 8.5051Z" fill="#707070"/>
</svg>
