<svg width="24" height="24" viewBox="0 0 24 24" fill="none" xmlns="http://www.w3.org/2000/svg">
<path d="M12 16.85H12C11.3891 16.8501 10.7971 17.0611 10.3239 17.4474C9.88252 17.8077 9.56985 18.2998 9.43048 18.85H2H1.85V19V20V20.15L1.99999 20.15L9.43055 20.1505C9.57019 20.7004 9.88299 21.1922 10.3243 21.5522C10.7975 21.9382 11.3894 22.149 12 22.149C12.6106 22.149 13.2025 21.9382 13.6757 21.5522C14.117 21.1922 14.4298 20.7004 14.5694 20.1505L22 20.15L22.15 20.15V20V19V18.85H22H14.5695C14.4302 18.2998 14.1175 17.8077 13.6761 17.4474C13.2029 17.0611 12.6109 16.8501 12 16.85ZM17 9.35H17C16.3891 9.35008 15.7971 9.56109 15.3239 9.94737C14.8825 10.3077 14.5698 10.7998 14.4305 11.35H2H1.85V11.5V12.5V12.65L1.99999 12.65L14.4306 12.6505C14.5702 13.2004 14.883 13.6922 15.3243 14.0522C15.7975 14.4382 16.3894 14.649 17 14.649C17.6106 14.649 18.2025 14.4382 18.6757 14.0522C19.117 13.6922 19.4298 13.2004 19.5695 12.6505L22 12.65L22.15 12.65V12.5V11.5V11.35H22H19.5695C19.4302 10.7998 19.1175 10.3077 18.6761 9.94737C18.2029 9.56109 17.6109 9.35008 17 9.35ZM7.00002 1.85H6.99998C6.38914 1.85007 5.79707 2.06109 5.32388 2.44737C4.88252 2.80766 4.56985 3.2998 4.43048 3.85H2H1.85V4V5V5.14997L1.99997 5.15L4.43055 5.15048C4.57018 5.70042 4.88298 6.19224 5.32432 6.55225C5.79749 6.93821 6.38938 7.14901 7 7.14901C7.61062 7.14901 8.20252 6.93821 8.67568 6.55225C9.11701 6.19224 9.42981 5.70043 9.56945 5.1505L22 5.15L22.15 5.14999V5V4V3.85H22H9.56952C9.43015 3.2998 9.11748 2.80766 8.67612 2.44737C8.20293 2.06109 7.61086 1.85007 7.00002 1.85ZM11.0454 18.5454C11.2986 18.2922 11.642 18.15 12 18.15C12.358 18.15 12.7014 18.2922 12.9546 18.5454C13.2078 18.7986 13.35 19.142 13.35 19.5C13.35 19.858 13.2078 20.2014 12.9546 20.4546C12.7014 20.7078 12.358 20.85 12 20.85C11.642 20.85 11.2986 20.7078 11.0454 20.4546C10.7922 20.2014 10.65 19.858 10.65 19.5C10.65 19.142 10.7922 18.7986 11.0454 18.5454ZM16.0454 11.0454C16.2986 10.7922 16.642 10.65 17 10.65C17.358 10.65 17.7014 10.7922 17.9546 11.0454C18.2078 11.2986 18.35 11.642 18.35 12C18.35 12.358 18.2078 12.7014 17.9546 12.9546C17.7014 13.2078 17.358 13.35 17 13.35C16.642 13.35 16.2986 13.2078 16.0454 12.9546C15.7922 12.7014 15.65 12.358 15.65 12C15.65 11.642 15.7922 11.2986 16.0454 11.0454ZM6.04541 3.54541C6.29858 3.29223 6.64196 3.15 7 3.15C7.35804 3.15 7.70142 3.29223 7.95459 3.54541C8.20777 3.79858 8.35 4.14196 8.35 4.5C8.35 4.85804 8.20777 5.20142 7.95459 5.45459C7.70142 5.70777 7.35804 5.85 7 5.85C6.64196 5.85 6.29858 5.70777 6.04541 5.45459C5.79223 5.20142 5.65 4.85804 5.65 4.5C5.65 4.14196 5.79223 3.79858 6.04541 3.54541Z" fill="#F4F1E7" stroke="#F4F1E7" stroke-width="0.3"/>
</svg>
