<svg width="21" height="21" viewBox="0 0 21 21" fill="none" xmlns="http://www.w3.org/2000/svg">
<path d="M14.178 6.82266C14.2507 6.89522 14.3083 6.98138 14.3476 7.07622C14.3869 7.17106 14.4071 7.27273 14.4071 7.37539C14.4071 7.47806 14.3869 7.57972 14.3476 7.67457C14.3083 7.76941 14.2507 7.85557 14.178 7.92813L7.92801 14.1781C7.85543 14.2507 7.76925 14.3083 7.67442 14.3476C7.57958 14.3869 7.47793 14.4071 7.37528 14.4071C7.27263 14.4071 7.17098 14.3869 7.07614 14.3476C6.9813 14.3083 6.89513 14.2507 6.82254 14.1781C6.74996 14.1055 6.69238 14.0194 6.6531 13.9245C6.61381 13.8297 6.59359 13.728 6.59359 13.6254C6.59359 13.5227 6.61381 13.4211 6.6531 13.3263C6.69238 13.2314 6.74996 13.1452 6.82254 13.0727L13.0725 6.82266C13.1451 6.75002 13.2313 6.6924 13.3261 6.65308C13.4209 6.61377 13.5226 6.59353 13.6253 6.59353C13.7279 6.59353 13.8296 6.61377 13.9245 6.65308C14.0193 6.6924 14.1055 6.75002 14.178 6.82266ZM19.055 1.94571C18.5471 1.43783 17.9442 1.03495 17.2807 0.760087C16.6172 0.485222 15.906 0.34375 15.1878 0.34375C14.4696 0.34375 13.7584 0.485222 13.0948 0.760087C12.4313 1.03495 11.8284 1.43783 11.3206 1.94571L8.38504 4.88028C8.23845 5.02687 8.1561 5.2257 8.1561 5.43301C8.1561 5.64033 8.23845 5.83915 8.38504 5.98575C8.53164 6.13234 8.73046 6.2147 8.93778 6.2147C9.14509 6.2147 9.34392 6.13234 9.49051 5.98575L12.4261 3.05606C13.1613 2.33697 14.1505 1.93684 15.1789 1.9425C16.2073 1.94816 17.192 2.35917 17.9193 3.08631C18.6465 3.81346 19.0577 4.79807 19.0635 5.82649C19.0694 6.8549 18.6694 7.84413 17.9505 8.5795L15.014 11.515C14.8674 11.6615 14.7849 11.8602 14.7849 12.0674C14.7848 12.2747 14.867 12.4734 15.0135 12.62C15.1599 12.7666 15.3586 12.849 15.5659 12.8491C15.7731 12.8492 15.9718 12.767 16.1184 12.6205L19.055 9.68008C19.5628 9.17225 19.9657 8.56936 20.2406 7.90582C20.5155 7.24229 20.6569 6.53111 20.6569 5.81289C20.6569 5.09468 20.5155 4.3835 20.2406 3.71997C19.9657 3.05643 19.5628 2.45353 19.055 1.94571ZM11.51 15.0141L8.5745 17.9496C8.21325 18.319 7.78231 18.613 7.30664 18.8147C6.83097 19.0164 6.32002 19.1217 5.80338 19.1245C5.28673 19.1273 4.77465 19.0277 4.29679 18.8313C3.81893 18.6348 3.38478 18.3456 3.01949 17.9802C2.65419 17.6148 2.365 17.1806 2.16866 16.7027C1.97233 16.2249 1.87274 15.7128 1.87568 15.1961C1.87862 14.6795 1.98401 14.1685 2.18577 13.6929C2.38753 13.2173 2.68163 12.7864 3.05106 12.4252L5.98563 9.49063C6.13222 9.34404 6.21458 9.14521 6.21458 8.93789C6.21458 8.73058 6.13222 8.53175 5.98563 8.38516C5.83904 8.23857 5.64021 8.15621 5.4329 8.15621C5.22558 8.15621 5.02676 8.23857 4.88016 8.38516L1.94559 11.3207C0.91995 12.3463 0.34375 13.7374 0.34375 15.1879C0.34375 16.6384 0.91995 18.0294 1.94559 19.0551C2.97123 20.0807 4.3623 20.6569 5.81278 20.6569C7.26326 20.6569 8.65432 20.0807 9.67997 19.0551L12.6155 16.1186C12.762 15.972 12.8442 15.7732 12.8441 15.566C12.844 15.3587 12.7616 15.16 12.615 15.0136C12.4684 14.8671 12.2697 14.7849 12.0624 14.785C11.8552 14.7851 11.6565 14.8675 11.51 15.0141Z" fill="#707070"/>
</svg>
