<svg width="24" height="24" viewBox="0 0 24 24" fill="none" xmlns="http://www.w3.org/2000/svg">
<path d="M18.9147 12.4C19.7868 11.7638 20.4955 10.9295 20.9823 9.96591C21.469 9.00231 21.7201 7.93689 21.7147 6.85733C21.7147 3.08533 18.6267 0 14.8574 0C13.6537 0.00258421 12.4717 0.320417 11.4291 0.921854C10.3865 1.52329 9.51955 2.38735 8.9147 3.428C5.25737 3.54267 2.28538 6.572 2.28538 10.2853C2.28538 12.572 3.37204 14.572 5.08537 15.828C3.5557 16.5749 2.26737 17.7377 1.36797 19.183C0.468576 20.6283 -0.00550231 22.2977 4.81852e-05 24H2.28538C2.28538 21.3147 3.88537 18.972 6.1147 17.828C6.97203 17.428 7.88537 17.1427 8.9147 17.1427H9.1427C12.9147 17.1427 16 20.228 16 24H18.2853C18.2853 20.4 16.228 17.3147 13.2 15.828C13.9573 15.25 14.5972 14.5327 15.0854 13.7147C18.7427 13.828 21.7147 16.8573 21.7147 20.572H24C24 16.972 21.9427 13.8853 18.9147 12.4ZM7.88537 14.6853C6.00004 14.1147 4.57337 12.4 4.57337 10.2853C4.57337 8.11467 6.0587 6.34267 8.0587 5.828C8.40137 5.772 8.74403 5.71467 9.14403 5.71467C9.60136 5.71467 10.0014 5.772 10.4014 5.88533C12.344 6.45733 13.716 8.172 13.716 10.2853C13.716 10.628 13.6587 10.9147 13.6014 11.2573C13.144 13.3147 11.316 14.8573 9.14403 14.8573C8.6867 14.8573 8.2867 14.8 7.8867 14.6853H7.88537ZM15.9427 11.3147C16 10.972 16 10.628 16 10.2853C16 7.31467 14.1147 4.8 11.428 3.828C11.8546 3.33882 12.382 2.94769 12.9739 2.68141C13.5658 2.41514 14.2083 2.28003 14.8574 2.28533C16.0686 2.2892 17.2291 2.77218 18.0855 3.6288C18.9419 4.48541 19.4245 5.64608 19.428 6.85733C19.428 9.028 17.9427 10.8 15.9427 11.3147Z" fill="#F4F1E7"/>
</svg>
