<svg width="50" height="79" viewBox="0 0 50 79" fill="none" xmlns="http://www.w3.org/2000/svg">
<path d="M9.15916 1.11131C9.15916 2.17557 10.026 3.03765 11.0782 3.03765C12.1316 3.03765 13.0036 2.16793 13.0036 1.11131V0H18.254V1.11131C18.254 2.17557 19.1208 3.03765 20.173 3.03765C21.2241 3.03765 22.0921 2.17036 22.0921 1.11131V0H27.3424V1.11131C27.3424 2.17557 28.2092 3.03765 29.2615 3.03765C30.3125 3.03765 31.1805 2.17036 31.1805 1.11131V0H36.4373V1.11131C36.4373 2.17557 37.3041 3.03765 38.3563 3.03765C39.4073 3.03765 40.2754 2.17036 40.2754 1.11131V0H49.4345V10.1707H48.3241C47.2679 10.1707 46.405 11.0368 46.405 12.0971C46.405 13.1561 47.2731 14.0234 48.3241 14.0234H49.4345V19.2837H48.3241C47.2679 19.2837 46.405 20.1497 46.405 21.21C46.405 22.2715 47.2755 23.1428 48.3241 23.1428H49.4345V28.4031H48.3241C47.2679 28.4031 46.405 29.2691 46.405 30.3294C46.405 31.3884 47.2731 32.2557 48.3241 32.2557H49.4345V37.516H48.3241C47.2679 37.516 46.405 38.3821 46.405 39.4424C46.405 40.5014 47.2731 41.3687 48.3241 41.3687H49.4345V46.6354H48.3241C47.2679 46.6354 46.405 47.5015 46.405 48.5617C46.405 49.6208 47.2731 50.4881 48.3241 50.4881H49.4345V55.7484H48.3241C47.2679 55.7484 46.405 56.6144 46.405 57.6747C46.405 58.7337 47.2731 59.601 48.3241 59.601H49.4345V64.8677H48.3241C47.2679 64.8677 46.405 65.7338 46.405 66.7941C46.405 67.8531 47.2731 68.7204 48.3241 68.7204H49.4345V78.9362H40.301V77.8249C40.301 76.7606 39.4342 75.8985 38.382 75.8985C37.331 75.8985 36.463 76.7658 36.463 77.8249V78.9362H31.2062V77.8249C31.2062 76.7606 30.3394 75.8985 29.2871 75.8985C28.2361 75.8985 27.3681 76.7658 27.3681 77.8249V78.9362H22.1178V77.8249C22.1178 76.7606 21.251 75.8985 20.1987 75.8985C19.1477 75.8985 18.2797 76.7658 18.2797 77.8249V78.9362H13.0293V77.8249C13.0293 76.7618 12.1637 75.8985 11.1039 75.8985C10.0476 75.8985 9.18483 76.7646 9.18483 77.8249V78.9362H0V68.7655H1.11044C2.16666 68.7655 3.02948 67.8994 3.02948 66.8391C3.02948 65.7801 2.16146 64.9128 1.11044 64.9128H0V59.6461H1.11044C2.16666 59.6461 3.02948 58.78 3.02948 57.7197C3.02948 56.6607 2.16146 55.7934 1.11044 55.7934H0V50.5331H1.11044C2.16667 50.5331 3.02948 49.6671 3.02948 48.6068C3.02948 47.5477 2.16146 46.6804 1.11044 46.6804H0V41.4137H1.11044C2.16667 41.4137 3.02948 40.5477 3.02948 39.4874C3.02948 38.4284 2.16146 37.5611 1.11044 37.5611H0V32.3008H1.11044C2.16667 32.3008 3.02948 31.4347 3.02948 30.3744C3.02948 29.3154 2.16146 28.4481 1.11044 28.4481H0V23.1878H1.11044C2.16545 23.1878 3.02948 22.323 3.02948 21.2551C3.02948 20.1908 2.16268 19.3287 1.11044 19.3287H0V14.0684H1.11044C2.16666 14.0684 3.02948 13.2024 3.02948 12.1421C3.02948 11.0831 2.16146 10.2158 1.11044 10.2158H0V0H9.15916V1.11131Z" fill="#D7372B"/>
<path d="M41.5536 10.0312H7.88086V69.496H41.5536V10.0312Z" fill="#F4F1E7"/>
</svg>
