<svg width="28" height="28" viewBox="0 0 28 28" fill="none" xmlns="http://www.w3.org/2000/svg">
<circle cx="14" cy="14" r="14" fill="#3C3C3C" fill-opacity="0.933333"/>
<path fill-rule="evenodd" clip-rule="evenodd" d="M13.4545 5.80995C13.7639 5.5321 14.2392 5.5321 14.5486 5.80995L22.1397 12.6273C22.4688 12.9229 22.4907 13.4235 22.1885 13.7454C21.8864 14.0673 21.3747 14.0887 21.0456 13.7932L14.0016 7.46706L6.95748 13.7932C6.62839 14.0887 6.1167 14.0673 5.81459 13.7454C5.51247 13.4235 5.53434 12.9229 5.86343 12.6273L13.4545 5.80995Z" fill="#F4F1E7"/>
<path fill-rule="evenodd" clip-rule="evenodd" d="M14.0041 5.60156C14.468 5.60156 14.8441 5.95078 14.8441 6.38156L14.8441 22.4616C14.8441 22.8923 14.468 23.2416 14.0041 23.2416C13.5401 23.2416 13.1641 22.8923 13.1641 22.4616L13.1641 6.38156C13.1641 5.95078 13.5401 5.60156 14.0041 5.60156Z" fill="#F4F1E7"/>
</svg>
