<svg width="21" height="24" viewBox="0 0 21 24" fill="none" xmlns="http://www.w3.org/2000/svg">
<path fill-rule="evenodd" clip-rule="evenodd" d="M14.4252 14L12.7818 12.3667L17.0067 8.16644H0V5.83356H17.0067L12.7832 1.63329L14.4266 0L20.6481 6.18336C20.7593 6.28873 20.8478 6.41544 20.9083 6.55581C20.9688 6.69618 21 6.8473 21 7C21 7.1527 20.9688 7.30382 20.9083 7.44419C20.8478 7.58456 20.7593 7.71127 20.6481 7.81664L14.4252 14Z" fill="#F4F1E7"/>
<path fill-rule="evenodd" clip-rule="evenodd" d="M6.57481 10L8.21819 11.6333L3.99334 15.8336L21 15.8336L21 18.1664L3.99334 18.1664L8.21682 22.3667L6.57344 24L0.351891 17.8166C0.240687 17.7113 0.152159 17.5846 0.0916735 17.4442C0.0311876 17.3038 5.9861e-07 17.1527 6.11959e-07 17C6.25309e-07 16.8473 0.0311877 16.6962 0.0916735 16.5558C0.152159 16.4154 0.240687 16.2887 0.351891 16.1834L6.57481 10Z" fill="#F4F1E7"/>
</svg>
