<svg width="26" height="24" viewBox="0 0 26 24" fill="none" xmlns="http://www.w3.org/2000/svg">
<path d="M22.5993 4.32H17.7993V1.92C17.7993 0.864 16.9353 0 15.8793 0H10.1193C9.0633 0 8.1993 0.864 8.1993 1.92V4.32H3.3993C1.6713 4.32 0.279297 5.712 0.279297 7.44V20.88C0.279297 22.608 1.6713 24 3.3993 24H22.5993C24.3273 24 25.7193 22.608 25.7193 20.88V7.44C25.7193 5.712 24.3273 4.32 22.5993 4.32ZM19.4793 5.76V22.56H6.5193V5.76H19.4793ZM9.6393 1.92C9.6393 1.656 9.8553 1.44 10.1193 1.44H15.8793C16.1433 1.44 16.3593 1.656 16.3593 1.92V4.32H9.6393V1.92ZM1.7193 20.88V7.44C1.7193 6.504 2.4633 5.76 3.3993 5.76H5.0793V22.56H3.3993C2.4633 22.56 1.7193 21.816 1.7193 20.88ZM24.2793 20.88C24.2793 21.816 23.5353 22.56 22.5993 22.56H20.9193V5.76H22.5993C23.5353 5.76 24.2793 6.504 24.2793 7.44V20.88Z" fill="#3C3C3C" fill-opacity="0.933333"/>
</svg>
