<svg width="27" height="25" viewBox="0 0 27 25" fill="none" xmlns="http://www.w3.org/2000/svg">
<path d="M4.10508 23.7791H23.3051C24.6251 23.7791 25.7051 22.6991 25.7051 21.3791V7.93906C25.7051 6.61906 24.6251 5.53906 23.3051 5.53906H4.10508C2.78508 5.53906 1.70508 6.61906 1.70508 7.93906V21.3791C1.70508 22.6991 2.78508 23.7791 4.10508 23.7791Z" fill="#D7372B"/>
<path d="M23.3044 4.82H18.5044V2.42C18.5044 1.364 17.6404 0.5 16.5844 0.5H10.8244C9.76838 0.5 8.90438 1.364 8.90438 2.42V4.82H4.10438C2.37638 4.82 0.984375 6.212 0.984375 7.94V21.38C0.984375 23.108 2.37638 24.5 4.10438 24.5H23.3044C25.0324 24.5 26.4244 23.108 26.4244 21.38V7.94C26.4244 6.212 25.0324 4.82 23.3044 4.82ZM20.1844 6.26V23.06H7.22438V6.26H20.1844ZM10.3444 2.42C10.3444 2.156 10.5604 1.94 10.8244 1.94H16.5844C16.8484 1.94 17.0644 2.156 17.0644 2.42V4.82H10.3444V2.42ZM2.42438 21.38V7.94C2.42438 7.004 3.16838 6.26 4.10438 6.26H5.78438V23.06H4.10438C3.16838 23.06 2.42438 22.316 2.42438 21.38ZM24.9844 21.38C24.9844 22.316 24.2404 23.06 23.3044 23.06H21.6244V6.26H23.3044C24.2404 6.26 24.9844 7.004 24.9844 7.94V21.38Z" fill="#D7372B"/>
</svg>
