<svg width="76" height="76" viewBox="0 0 76 76" fill="none" xmlns="http://www.w3.org/2000/svg">
<g filter="url(#filter0_d_307_11997)">
<circle cx="38" cy="34" r="33.15" stroke="#F4F1E7" stroke-width="1.7"/>
<path d="M31.0185 36.1976C31.0185 36.9573 30.7934 37.6999 30.3718 38.3316C29.9502 38.9633 29.3509 39.4556 28.6498 39.7463C27.9487 40.037 27.1772 40.1131 26.4329 39.9649C25.6886 39.8167 25.0049 39.4509 24.4683 38.9137C23.9317 38.3765 23.5663 37.6921 23.4182 36.947C23.2701 36.2018 23.3461 35.4295 23.6365 34.7277C23.927 34.0258 24.4188 33.4259 25.0497 33.0038C25.6807 32.5817 26.4226 32.3565 27.1815 32.3565C28.1991 32.3565 29.175 32.7612 29.8946 33.4815C30.6142 34.2019 31.0185 35.1789 31.0185 36.1976ZM48.8082 32.3565C48.0494 32.3565 47.3075 32.5817 46.6765 33.0038C46.0455 33.4259 45.5537 34.0258 45.2633 34.7277C44.9729 35.4295 44.8969 36.2018 45.045 36.947C45.193 37.6921 45.5585 38.3765 46.0951 38.9137C46.6317 39.4509 47.3154 39.8167 48.0597 39.9649C48.804 40.1131 49.5755 40.037 50.2766 39.7463C50.9777 39.4556 51.577 38.9633 51.9986 38.3316C52.4202 37.6999 52.6452 36.9573 52.6452 36.1976C52.6449 35.1794 52.2409 34.203 51.5218 33.483C50.8027 32.7629 49.8274 32.3581 48.8104 32.3575L48.8082 32.3565ZM59.6264 36.1976C59.6264 42.1753 54.7812 47.0215 48.8082 47.0215C46.0837 47.026 43.4586 45.9966 41.462 44.1407L37.9996 47.9119L34.5357 44.1364C32.5392 45.9943 29.9132 47.0253 27.1873 47.0215C21.2187 47.0215 16.375 42.1753 16.375 36.1976C16.373 34.6917 16.6857 33.202 17.2931 31.8243C17.9005 30.4466 18.7891 29.2113 19.9018 28.1979L16.3633 24.344H24.2248C28.2897 21.5747 33.0929 20.0938 38.0098 20.0938C42.9267 20.0938 47.7298 21.5747 51.7947 24.344H59.636L56.098 28.1979C57.2111 29.2111 58.1001 30.4463 58.7079 31.824C59.3156 33.2017 59.6282 34.6915 59.6264 36.1976ZM34.5016 36.1976C34.5016 34.7488 34.0724 33.3325 33.2683 32.1278C32.4643 30.9231 31.3214 29.9842 29.9843 29.4298C28.6472 28.8754 27.1758 28.7304 25.7564 29.0131C24.3369 29.2957 23.0331 29.9935 22.0097 31.018C20.9864 32.0425 20.2895 33.3478 20.0072 34.7688C19.7249 36.1898 19.8699 37.6627 20.4238 39.0012C20.9778 40.3398 21.9157 41.4838 23.1192 42.2886C24.3226 43.0935 25.7374 43.523 27.1847 43.5229C28.1456 43.523 29.0972 43.3336 29.985 42.9655C30.8728 42.5973 31.6795 42.0578 32.359 41.3775C33.0385 40.6973 33.5775 39.8897 33.9453 39.001C34.313 38.1122 34.5017 37.1596 34.5016 36.1976ZM46.1191 25.2611C43.5459 24.1878 40.7859 23.6353 37.9983 23.6353C35.2107 23.6353 32.4507 24.1878 29.8775 25.2611C34.4973 27.0312 37.9996 31.1657 37.9996 35.9863C37.9996 31.1663 41.5009 27.0307 46.1191 25.2611ZM56.1273 36.1976C56.1273 34.7488 55.6981 33.3325 54.894 32.1278C54.09 30.9231 52.9471 29.9842 51.61 29.4298C50.2729 28.8754 48.8015 28.7304 47.3821 29.0131C45.9626 29.2957 44.6588 29.9935 43.6354 31.018C42.6121 32.0425 41.9152 33.3478 41.6329 34.7688C41.3506 36.1898 41.4956 37.6627 42.0495 39.0012C42.6035 40.3398 43.5414 41.4838 44.7449 42.2886C45.9483 43.0935 47.3631 43.523 48.8104 43.5229C50.7511 43.5229 52.6123 42.7511 53.9846 41.3774C55.3569 40.0036 56.1273 38.1404 56.1273 36.1976Z" fill="#F4F1E7"/>
</g>
<defs>
<filter id="filter0_d_307_11997" x="0" y="0" width="76" height="76" filterUnits="userSpaceOnUse" color-interpolation-filters="sRGB">
<feFlood flood-opacity="0" result="BackgroundImageFix"/>
<feColorMatrix in="SourceAlpha" type="matrix" values="0 0 0 0 0 0 0 0 0 0 0 0 0 0 0 0 0 0 127 0" result="hardAlpha"/>
<feOffset dy="4"/>
<feGaussianBlur stdDeviation="2"/>
<feComposite in2="hardAlpha" operator="out"/>
<feColorMatrix type="matrix" values="0 0 0 0 0 0 0 0 0 0 0 0 0 0 0 0 0 0 0.25 0"/>
<feBlend mode="normal" in2="BackgroundImageFix" result="effect1_dropShadow_307_11997"/>
<feBlend mode="normal" in="SourceGraphic" in2="effect1_dropShadow_307_11997" result="shape"/>
</filter>
</defs>
</svg>
