<svg width="22" height="16" viewBox="0 0 22 16" fill="none" xmlns="http://www.w3.org/2000/svg">
<g clip-path="url(#clip0_364_7882)">
<path fill-rule="evenodd" clip-rule="evenodd" d="M0.703125 2.33666C0.703125 1.11631 1.69014 0.0859375 2.96046 0.0859375H13.1596C14.4276 0.0859375 15.4146 1.11631 15.4146 2.33666V2.59817L17.5303 1.19677C18.3048 0.682704 19.2439 0.747521 19.9476 1.09619C20.6536 1.4471 21.2659 2.16009 21.2659 3.10106V12.551C21.2659 13.5009 20.6467 14.2005 19.9316 14.5357C19.221 14.8665 18.2911 14.9001 17.5326 14.3972L15.4169 12.9958V13.255C15.4169 14.4754 14.4299 15.5058 13.1596 15.5058H2.96046C1.69242 15.5058 0.703125 14.4754 0.703125 13.255V2.33666ZM2.96046 1.65049C2.62003 1.65049 2.30245 1.93658 2.30245 2.33666V13.255C2.30245 13.6573 2.62003 13.9412 2.96046 13.9412H13.1619C13.5023 13.9412 13.8199 13.6551 13.8199 13.255V11.7307C13.8199 11.0132 14.6401 10.5886 15.2478 10.9909L18.4328 13.1008C18.6407 13.2394 18.9537 13.2595 19.2461 13.1232C19.5317 12.9913 19.6711 12.7723 19.6711 12.551V3.1033C19.6711 2.87532 19.5249 2.6384 19.2302 2.49312C18.9331 2.3456 18.6293 2.36572 18.4351 2.49312L15.2501 4.60303C14.6424 5.00535 13.8222 4.57845 13.8222 3.86322V2.3389C13.8222 1.93658 13.5046 1.65273 13.1641 1.65273H2.96046V1.65049Z" fill="#D7372B"/>
</g>
<defs>
<clipPath id="clip0_364_7882">
<rect width="20.5627" height="15.4221" fill="white" transform="translate(0.703125 0.0859375)"/>
</clipPath>
</defs>
</svg>
