<svg width="25" height="24" viewBox="0 0 25 24" fill="none" xmlns="http://www.w3.org/2000/svg">
<g clip-path="url(#clip0_364_8061)">
<path d="M12.5 0C5.8835 0 0.5 5.3835 0.5 12C0.5 18.6165 5.8835 24 12.5 24C19.1165 24 24.5 18.6165 24.5 12C24.5 5.3835 19.1165 0 12.5 0ZM12.5 22.5C6.71 22.5 2 17.79 2 12C2 6.21 6.71 1.5 12.5 1.5C18.29 1.5 23 6.21 23 12C23 17.79 18.29 22.5 12.5 22.5Z" fill="#3C3C3C" fill-opacity="0.933333"/>
<path d="M12.5 11.25C11.2805 11.25 10.25 10.563 10.25 9.75C10.25 8.937 11.2805 8.25 12.5 8.25C13.19 8.25 13.829 8.466 14.252 8.841C14.3256 8.90656 14.4114 8.95694 14.5045 8.98926C14.5976 9.02158 14.6962 9.03521 14.7946 9.02935C14.893 9.0235 14.9892 8.99829 15.0778 8.95515C15.1665 8.91202 15.2457 8.85182 15.311 8.778C15.587 8.469 15.5585 7.995 15.248 7.719C14.723 7.2525 14.018 6.9375 13.25 6.813V6C13.25 5.586 12.914 5.25 12.5 5.25C12.086 5.25 11.75 5.586 11.75 6V6.81C10.04 7.089 8.75 8.301 8.75 9.75C8.75 11.4045 10.433 12.75 12.5 12.75C13.7195 12.75 14.75 13.437 14.75 14.25C14.75 15.063 13.7195 15.75 12.5 15.75C11.81 15.75 11.171 15.534 10.748 15.159C10.439 14.883 9.965 14.91 9.689 15.222C9.413 15.531 9.4415 16.005 9.752 16.281C10.277 16.749 10.982 17.0625 11.75 17.1885V18C11.75 18.414 12.086 18.75 12.5 18.75C12.914 18.75 13.25 18.414 13.25 18V17.19C14.96 16.911 16.25 15.699 16.25 14.25C16.25 12.5955 14.567 11.25 12.5 11.25Z" fill="#3C3C3C" fill-opacity="0.933333"/>
</g>
<defs>
<clipPath id="clip0_364_8061">
<rect width="24" height="24" fill="white" transform="translate(0.5)"/>
</clipPath>
</defs>
</svg>
