<svg width="25" height="25" viewBox="0 0 25 25" fill="none" xmlns="http://www.w3.org/2000/svg">
<g clip-path="url(#clip0_364_8202)">
<circle cx="12.9102" cy="13" r="11" fill="#D7372B"/>
<path d="M12.9102 0.5C6.29366 0.5 0.910156 5.8835 0.910156 12.5C0.910156 19.1165 6.29366 24.5 12.9102 24.5C19.5267 24.5 24.9102 19.1165 24.9102 12.5C24.9102 5.8835 19.5267 0.5 12.9102 0.5ZM12.9102 23C7.12016 23 2.41016 18.29 2.41016 12.5C2.41016 6.71 7.12016 2 12.9102 2C18.7002 2 23.4102 6.71 23.4102 12.5C23.4102 18.29 18.7002 23 12.9102 23Z" fill="#D7372B"/>
<path d="M12.9102 11.75C11.6907 11.75 10.6602 11.063 10.6602 10.25C10.6602 9.437 11.6907 8.75 12.9102 8.75C13.6002 8.75 14.2392 8.966 14.6622 9.341C14.7358 9.40656 14.8216 9.45694 14.9147 9.48926C15.0078 9.52158 15.1064 9.53521 15.2047 9.52935C15.3031 9.5235 15.3994 9.49829 15.488 9.45515C15.5766 9.41202 15.6559 9.35182 15.7212 9.278C15.9972 8.969 15.9687 8.495 15.6582 8.219C15.1332 7.7525 14.4282 7.4375 13.6602 7.313V6.5C13.6602 6.086 13.3242 5.75 12.9102 5.75C12.4962 5.75 12.1602 6.086 12.1602 6.5V7.31C10.4502 7.589 9.16016 8.801 9.16016 10.25C9.16016 11.9045 10.8432 13.25 12.9102 13.25C14.1297 13.25 15.1602 13.937 15.1602 14.75C15.1602 15.563 14.1297 16.25 12.9102 16.25C12.2202 16.25 11.5812 16.034 11.1582 15.659C10.8492 15.383 10.3752 15.41 10.0992 15.722C9.82316 16.031 9.85166 16.505 10.1622 16.781C10.6872 17.249 11.3922 17.5625 12.1602 17.6885V18.5C12.1602 18.914 12.4962 19.25 12.9102 19.25C13.3242 19.25 13.6602 18.914 13.6602 18.5V17.69C15.3702 17.411 16.6602 16.199 16.6602 14.75C16.6602 13.0955 14.9772 11.75 12.9102 11.75Z" fill="#FFFEF9"/>
</g>
<defs>
<clipPath id="clip0_364_8202">
<rect width="24" height="24" fill="white" transform="translate(0.910156 0.5)"/>
</clipPath>
</defs>
</svg>
