<svg width="35" height="36" viewBox="0 0 35 36" fill="none" xmlns="http://www.w3.org/2000/svg">
<g clip-path="url(#clip0_1207_3228)">
<path d="M9.06956 33.3373C11.6464 34.7794 14.5478 35.5365 17.5 35.5365C27.1478 35.5365 35 27.5639 35 17.7682C35 7.97253 27.1478 0 17.5 0C7.85217 0 0 7.97253 0 17.7682C0 20.915 0.816667 23.9948 2.37391 26.7039L0.147101 36L9.06956 33.3373ZM9.99783 9.46609C10.3681 9.12103 10.85 8.93562 11.3522 8.93562H11.8848C12.5899 8.93562 13.2188 9.38369 13.4572 10.0532L14.5478 13.1021C14.6493 13.3906 14.5986 13.7099 14.4109 13.9519L13.5486 15.0438C13.2087 15.4712 13.1174 16.0532 13.3152 16.5631C14.3601 19.2309 17.4645 21.1056 19.0877 21.9296C19.6761 22.2283 20.3812 22.115 20.8478 21.6464L21.8014 20.6781C22.0297 20.4464 22.3696 20.3639 22.679 20.4618L25.5703 21.3991C26.2652 21.6257 26.737 22.2798 26.737 23.0215V23.7682C26.737 24.3142 26.5239 24.8395 26.1435 25.2257C23.3283 28.0481 18.6565 25.9777 15.6283 24.0927C13.4471 22.733 11.5449 20.9459 10.1297 18.7777C6.7058 13.5296 8.78551 10.5888 9.99783 9.46609Z" fill="#F4F1E7"/>
</g>
<defs>
<clipPath id="clip0_1207_3228">
<rect width="35" height="36" fill="white"/>
</clipPath>
</defs>
</svg>
