<svg width="18" height="31" viewBox="0 0 18 31" fill="none" xmlns="http://www.w3.org/2000/svg">
<path d="M17.0952 12.4364C18.5636 8.43238 17.7168 5.76262 16.5843 1.44404C16.3628 0.5952 15.5374 0 14.5835 0H3.28629C2.32878 0 1.50704 0.5952 1.28552 1.44404C0.152943 5.76262 -0.693812 8.43238 0.774611 12.4364C2.13228 16.1429 5.25848 18.3783 8.22034 20.0658V29.6473H4.53677C4.14019 29.6473 3.82221 29.9483 3.82221 30.3236C3.82221 30.699 4.14019 31 4.53677 31H13.333C13.7296 31 14.0476 30.699 14.0476 30.3236C14.0476 29.9483 13.7296 29.6473 13.333 29.6473H9.64946V20.0658C12.6113 18.3817 15.7375 16.1429 17.0952 12.4364ZM3.28629 1.35273H14.5799C14.8729 1.35273 15.1301 1.52858 15.1944 1.76869C15.4195 2.63105 15.6339 3.50356 15.8197 4.37607H2.04653C2.23232 3.50356 2.44311 2.63105 2.67177 1.76869C2.73608 1.52858 2.99332 1.35273 3.28629 1.35273ZM2.12156 11.9934C1.17477 9.40972 1.29981 8.38691 1.83216 5.45825H16.0341C16.5664 8.38691 16.6915 9.40972 15.7447 11.9934C14.5371 15.2873 11.6681 17.3367 8.93132 18.8957C6.19456 17.3367 3.32559 15.2873 2.11799 11.9934H2.12156Z" fill="#3C3C3C" fill-opacity="0.933333"/>
</svg>
